<svg xmlns="http://www.w3.org/2000/svg" viewBox="0 0 500 500"><g id="freepik--background-complete--inject-1"><rect y="382.4" width="500" height="0.25" style="fill:#ebebeb"></rect><rect x="410.77" y="391.92" width="33.12" height="0.25" style="fill:#ebebeb"></rect><rect x="131.47" y="395.31" width="49.86" height="0.25" style="fill:#ebebeb"></rect><rect x="380.24" y="401.21" width="29.53" height="0.25" style="fill:#ebebeb"></rect><rect x="52.46" y="399.53" width="21.6" height="0.25" style="fill:#ebebeb"></rect><rect x="82.96" y="399.53" width="38.37" height="0.25" style="fill:#ebebeb"></rect><rect x="237.54" y="389.21" width="93.68" height="0.25" style="fill:#ebebeb"></rect><path d="M237,337.8H43.91a5.71,5.71,0,0,1-5.7-5.71V60.66A5.71,5.71,0,0,1,43.91,55H237a5.71,5.71,0,0,1,5.71,5.71V332.09A5.71,5.71,0,0,1,237,337.8ZM43.91,55.2a5.46,5.46,0,0,0-5.45,5.46V332.09a5.46,5.46,0,0,0,5.45,5.46H237a5.47,5.47,0,0,0,5.46-5.46V60.66A5.47,5.47,0,0,0,237,55.2Z" style="fill:#ebebeb"></path><path d="M453.31,337.8H260.21a5.72,5.72,0,0,1-5.71-5.71V60.66A5.72,5.72,0,0,1,260.21,55h193.1A5.71,5.71,0,0,1,459,60.66V332.09A5.71,5.71,0,0,1,453.31,337.8ZM260.21,55.2a5.47,5.47,0,0,0-5.46,5.46V332.09a5.47,5.47,0,0,0,5.46,5.46h193.1a5.47,5.47,0,0,0,5.46-5.46V60.66a5.47,5.47,0,0,0-5.46-5.46Z" style="fill:#ebebeb"></path><rect x="108.71" y="82.2" width="271.21" height="132.46" transform="translate(488.63 296.85) rotate(180)" style="fill:#e6e6e6"></rect><rect x="103.63" y="82.2" width="273.92" height="132.46" transform="translate(481.18 296.85) rotate(180)" style="fill:#f0f0f0"></rect><rect x="108.71" y="214.66" width="271.21" height="9.44" transform="translate(488.63 438.75) rotate(180)" style="fill:#e6e6e6"></rect><rect x="95.17" y="214.66" width="273.92" height="9.44" transform="translate(464.25 438.75) rotate(180)" style="fill:#f0f0f0"></rect><rect x="181.47" y="18.58" width="118.24" height="259.7" transform="translate(389.02 -92.16) rotate(90)" style="fill:#fafafa"></rect><polygon points="182.17 207.55 170.79 89.31 151.09 89.31 162.47 207.55 182.17 207.55" style="fill:#fff"></polygon><polygon points="333.82 207.55 322.43 89.31 302.73 89.31 314.12 207.55 333.82 207.55" style="fill:#fff"></polygon><path d="M367.15,167.47a.55.55,0,0,0,.54-.55v-73a.55.55,0,1,0-1.09,0v73A.55.55,0,0,0,367.15,167.47Z" style="fill:#f0f0f0"></path><polygon points="158.24 207.55 146.85 89.31 139.17 89.31 150.56 207.55 158.24 207.55" style="fill:#fff"></polygon><rect x="52.07" y="147.98" width="118.24" height="0.9" transform="translate(259.62 37.24) rotate(90)" style="fill:#e6e6e6"></rect><polygon points="101.95 102.2 373.16 102.2 373.81 92.07 102.6 92.07 101.95 102.2" style="fill:#e0e0e0;opacity:0.5"></polygon><polygon points="101.95 118.85 373.16 118.85 373.81 108.72 102.6 108.72 101.95 118.85" style="fill:#e0e0e0;opacity:0.5"></polygon><polygon points="101.95 135.5 373.16 135.5 373.81 125.37 102.6 125.37 101.95 135.5" style="fill:#e0e0e0;opacity:0.5"></polygon><polygon points="101.95 152.15 373.16 152.15 373.81 142.02 102.6 142.02 101.95 152.15" style="fill:#e0e0e0;opacity:0.5"></polygon><polygon points="101.95 168.8 373.16 168.8 373.81 158.67 102.6 158.67 101.95 168.8" style="fill:#e0e0e0;opacity:0.5"></polygon><polygon points="101.95 185.45 373.16 185.45 373.81 175.32 102.6 175.32 101.95 185.45" style="fill:#e0e0e0;opacity:0.5"></polygon><rect x="264.64" y="268.35" width="17.06" height="114.04" transform="translate(546.34 650.75) rotate(180)" style="fill:#e6e6e6"></rect><polygon points="269.12 382.4 264.64 382.4 264.64 366.87 273.83 366.87 269.12 382.4" style="fill:#f0f0f0"></polygon><rect x="421.96" y="268.35" width="17.06" height="114.04" transform="translate(860.99 650.75) rotate(180)" style="fill:#e6e6e6"></rect><rect x="264.64" y="268.35" width="161.24" height="104.51" transform="translate(690.51 641.22) rotate(180)" style="fill:#f0f0f0"></rect><rect x="268.12" y="272.99" width="154.28" height="28.66" transform="translate(690.51 574.63) rotate(180)" style="fill:#e6e6e6"></rect><path d="M295,281.89h97.5c4.38,0,8.56-3.53,11.57-9.78H283.43C286.44,278.36,290.62,281.89,295,281.89Z" style="fill:#f0f0f0"></path><polygon points="421.39 382.4 425.88 382.4 425.88 366.87 416.69 366.87 421.39 382.4" style="fill:#f0f0f0"></polygon><rect x="268.12" y="306.28" width="154.28" height="28.66" transform="translate(690.51 641.22) rotate(180)" style="fill:#e6e6e6"></rect><path d="M295,315.19h97.5c4.38,0,8.56-3.54,11.57-9.78H283.43C286.44,311.65,290.62,315.19,295,315.19Z" style="fill:#f0f0f0"></path><rect x="268.12" y="339.57" width="154.28" height="28.66" transform="translate(690.51 707.81) rotate(180)" style="fill:#e6e6e6"></rect><path d="M295,348.48h97.5c4.38,0,8.56-3.54,11.57-9.78H283.43C286.44,344.94,290.62,348.48,295,348.48Z" style="fill:#f0f0f0"></path><rect x="127.99" y="233.17" width="28.86" height="16.68" rx="4.54" style="fill:#f5f5f5"></rect><rect x="164.1" y="233.17" width="28.86" height="16.68" rx="4.54" style="fill:#f5f5f5"></rect><path d="M82.48,229.83s.69,20,27.07,20,27.06-20,27.06-20Z" style="fill:#f0f0f0"></path><rect x="195.93" y="256.14" width="29.04" height="119.73" transform="translate(420.9 632.02) rotate(180)" style="fill:#f0f0f0"></rect><rect x="76.19" y="375.88" width="143.2" height="6.52" transform="translate(295.59 758.28) rotate(180)" style="fill:#f0f0f0"></rect><rect x="70.62" y="256.14" width="125.31" height="119.73" style="fill:#f5f5f5"></rect><rect x="82.04" y="302.21" width="102.48" height="27.6" style="fill:#f0f0f0"></rect><rect x="82.04" y="335.97" width="102.48" height="27.6" style="fill:#f0f0f0"></rect><path d="M121.25,305.91H145.3a2.32,2.32,0,0,0,2.31-2.31h0a2.32,2.32,0,0,0-2.31-2.32H121.25a2.32,2.32,0,0,0-2.31,2.32h0A2.32,2.32,0,0,0,121.25,305.91Z" style="fill:#f5f5f5"></path><rect x="82.04" y="268.46" width="102.48" height="27.6" style="fill:#f0f0f0"></rect><path d="M121.25,272.16H145.3a2.32,2.32,0,0,0,2.31-2.32h0a2.32,2.32,0,0,0-2.31-2.31H121.25a2.32,2.32,0,0,0-2.31,2.31h0A2.32,2.32,0,0,0,121.25,272.16Z" style="fill:#f5f5f5"></path><rect x="118.94" y="335.04" width="28.67" height="4.63" rx="2.31" transform="translate(266.55 674.7) rotate(180)" style="fill:#f5f5f5"></rect><rect x="66.75" y="249.85" width="129.18" height="6.3" transform="translate(262.68 505.99) rotate(180)" style="fill:#f0f0f0"></rect><rect x="195.93" y="249.85" width="33.1" height="6.3" style="fill:#e6e6e6"></rect><path d="M389.76,183.19l-7.17-10.86c.25,62.86,1.31,66.48,1.28,77.3h5.75C390.42,197,392.64,196.69,389.76,183.19Z" style="fill:#e0e0e0"></path><path d="M387,268.35h0c16.49,0,30.4-6.69,33.78-15.74a30.23,30.23,0,0,1,3.52-7l.26-.37H349.42l.26.37a29.89,29.89,0,0,1,3.53,7C356.59,261.66,370.5,268.35,387,268.35Z" style="fill:#fafafa"></path><path d="M349.27,247.48h75.44a4.61,4.61,0,0,0,4.45-3.45h0a4.6,4.6,0,0,0-4.45-5.74H349.27a4.59,4.59,0,0,0-4.45,5.74h0A4.59,4.59,0,0,0,349.27,247.48Z" style="fill:#f0f0f0"></path><path d="M387.59,174.44c-1.43-17-18.92-18.68-51.64-26.69C352,194,393,238.47,387.59,174.44Z" style="fill:#e0e0e0"></path><path d="M382.85,165.51c-2.42-13.5.11-27.81,38-26.41C411.36,176.27,394.11,228.19,382.85,165.51Z" style="fill:#e0e0e0"></path><path d="M384.57,198.47c1.15-15.55,13.13-34,52.35-20.73C419.48,207.92,381.79,236,384.57,198.47Z" style="fill:#e0e0e0"></path></g><g id="freepik--Shadow--inject-1"><ellipse id="freepik--path--inject-1" cx="250" cy="416.24" rx="193.89" ry="11.32" style="fill:#f5f5f5"></ellipse></g><g id="freepik--Table--inject-1"><rect x="134.76" y="269.62" width="122.71" height="6.62" transform="translate(392.22 545.86) rotate(180)" style="fill:#407BFF"></rect><rect x="134.76" y="269.62" width="122.71" height="6.62" transform="translate(392.22 545.86) rotate(180)" style="fill:#fff;opacity:0.5"></rect><rect x="78.56" y="269.62" width="56.19" height="6.62" style="fill:#407BFF"></rect><rect x="78.56" y="269.62" width="56.19" height="6.62" style="fill:#fff;opacity:0.5"></rect><rect x="78.56" y="269.62" width="56.19" height="6.62" style="opacity:0.2"></rect><polygon points="82.36 283.3 253.68 283.3 255.15 276.24 80.88 276.24 82.36 283.3" style="fill:#407BFF"></polygon><polygon points="82.36 283.3 253.68 283.3 255.15 276.24 80.88 276.24 82.36 283.3" style="opacity:0.6000000000000001"></polygon><polygon points="235.89 283.3 235.89 412.53 232.02 412.53 227.14 283.3 235.89 283.3" style="fill:#407BFF"></polygon><polygon points="235.89 283.3 235.89 412.53 232.02 412.53 227.14 283.3 235.89 283.3" style="fill:#fff;opacity:0.5"></polygon><polygon points="190.15 283.3 190.15 412.53 186.28 412.53 181.4 283.3 190.15 283.3" style="fill:#407BFF"></polygon><polygon points="190.15 283.3 190.15 412.53 186.28 412.53 181.4 283.3 190.15 283.3" style="fill:#fff;opacity:0.5"></polygon><polygon points="90.99 283.3 90.99 412.53 94.86 412.53 99.74 283.3 90.99 283.3" style="fill:#407BFF"></polygon><polygon points="90.99 283.3 90.99 412.53 94.86 412.53 99.74 283.3 90.99 283.3" style="fill:#fff;opacity:0.5"></polygon><polygon points="136.73 283.3 136.73 412.53 140.6 412.53 145.48 283.3 136.73 283.3" style="fill:#407BFF"></polygon><polygon points="136.73 283.3 136.73 412.53 140.6 412.53 145.48 283.3 136.73 283.3" style="fill:#fff;opacity:0.5"></polygon></g><g id="freepik--character-3--inject-1"><path d="M397.31,186.54c2.19,4.27,4.2,8.53,6.13,12.89s3.72,8.77,5.37,13.31c.39,1.16.81,2.28,1.17,3.47l.28.88.15.44c0,.15.15.52.21.77a10.46,10.46,0,0,1,.22,3,15.26,15.26,0,0,1-1.19,4.68,24.66,24.66,0,0,1-1.89,3.66,49.91,49.91,0,0,1-9.89,11.25l-3.69-3.38A81.57,81.57,0,0,0,400.69,226a23,23,0,0,0,1-2.77,6.53,6.53,0,0,0,.27-2.18.94.94,0,0,0-.11-.45s0,.05-.05-.07l-.15-.39-.31-.78c-.4-1-.87-2.08-1.31-3.13-1.8-4.19-3.75-8.38-5.74-12.57l-6-12.55Z" style="fill:#ff8b7b"></path><path d="M395.28,236.3l-4.53,1.94,4.51,6.25s3.28-1.84,3.69-5.05Z" style="fill:#ff8b7b"></path><polygon points="384.62 241.36 389.61 246.04 395.26 244.49 390.75 238.24 384.62 241.36" style="fill:#ff8b7b"></polygon><path d="M366.07,155.19c-.11.53-.47.9-.82.83s-.53-.56-.43-1.08.48-.9.82-.83S366.18,154.66,366.07,155.19Z" style="fill:#263238"></path><path d="M365.65,156.1a19.33,19.33,0,0,1-3.44,4,3.09,3.09,0,0,0,2.42,1Z" style="fill:#ed847e"></path><path d="M368.6,152.66a.34.34,0,0,1-.24-.11,2.53,2.53,0,0,0-2.11-.85.31.31,0,1,1-.11-.62,3.13,3.13,0,0,1,2.69,1,.32.32,0,0,1-.23.53Z" style="fill:#263238"></path><path d="M381.08,162.6c-1,4.88-1.91,13.81,1.5,17.07,0,0-1.33,4.94-10.39,4.94-10,0-4.76-4.94-4.76-4.94,5.43-1.3,5.29-5.34,4.35-9.13Z" style="fill:#ff8b7b"></path><path d="M384.92,181.22c.73-1.56,1.55-3.35-.28-3.83-2-.53-12.95-.76-16.67.52s-2.53,4.34-2.53,4.34Z" style="fill:#407BFF"></path><path d="M364.85,409c-.85,0-1.68-.12-2-.51a.61.61,0,0,1,0-.69.81.81,0,0,1,.5-.37c1.11-.3,3.44,1,3.53,1.09a.15.15,0,0,1,.08.16.16.16,0,0,1-.12.13A12.22,12.22,0,0,1,364.85,409Zm-1.05-1.3a1,1,0,0,0-.31,0,.46.46,0,0,0-.31.22c-.11.2-.07.29,0,.35.31.43,2,.44,3.23.26A7.23,7.23,0,0,0,363.8,407.74Z" style="fill:#407BFF"></path><path d="M366.87,408.85h-.07c-.8-.36-2.4-1.81-2.28-2.56,0-.18.16-.4.59-.44a1.18,1.18,0,0,1,.88.27,4.43,4.43,0,0,1,1,2.57.15.15,0,0,1-.06.14Zm-1.63-2.7h-.1c-.28,0-.3.14-.3.18-.08.45,1,1.59,1.83,2.08a3.82,3.82,0,0,0-.88-2.06A.89.89,0,0,0,365.24,406.15Z" style="fill:#407BFF"></path><polygon points="374.2 408.69 367.53 408.69 366.87 393.26 373.53 393.26 374.2 408.69" style="fill:#ff8b7b"></polygon><polygon points="422.24 401.34 415.61 402.06 410.61 387.07 417.24 386.35 422.24 401.34" style="fill:#ff8b7b"></polygon><path d="M412.58,403.57c-.83.22-1.66.31-2,0a.59.59,0,0,1-.16-.67.78.78,0,0,1,.4-.48c1-.57,3.58.14,3.69.17a.17.17,0,0,1,.12.14.17.17,0,0,1-.09.16A11,11,0,0,1,412.58,403.57Zm-1.34-1a1.6,1.6,0,0,0-.29.11.48.48,0,0,0-.24.29c-.06.22,0,.3.05.35.41.34,2.05-.07,3.2-.54A7.05,7.05,0,0,0,411.24,402.58Z" style="fill:#407BFF"></path><path d="M414.49,402.9s-.05,0-.07,0c-.87-.15-2.77-1.15-2.83-1.91,0-.18.05-.43.46-.58a1.16,1.16,0,0,1,.91,0c1,.47,1.61,2.16,1.64,2.23a.15.15,0,0,1,0,.16Zm-2.24-2.22-.1,0c-.26.1-.25.21-.25.25,0,.45,1.37,1.28,2.29,1.56a3.66,3.66,0,0,0-1.36-1.77A.8.8,0,0,0,412.25,400.68Z" style="fill:#407BFF"></path><path d="M415.23,401.44l7.19-2.09a.57.57,0,0,1,.67.28L426,405a1,1,0,0,1-.61,1.41c-2.52.69-3.78.9-6.94,1.81-1.95.57-5.9,1.94-8.59,2.72s-3.81-1.78-2.78-2.34c4.62-2.51,6.05-4.54,7.21-6.41A1.63,1.63,0,0,1,415.23,401.44Z" style="fill:#263238"></path><path d="M367.57,407.92h7.28a.58.58,0,0,1,.57.46l1.32,5.92a1,1,0,0,1-1,1.19c-2.63-.05-6.42-.2-9.72-.2-3.86,0-6,.21-10.49.21-2.74,0-3.49-2.77-2.35-3,5.22-1.14,8.24-1.26,12.75-4A3.1,3.1,0,0,1,367.57,407.92Z" style="fill:#263238"></path><path d="M362.77,191.75c-.88,2.34-1.83,4.39-2.85,6.53s-2.11,4.19-3.28,6.25a67.28,67.28,0,0,1-8.41,11.8c-.43.46-.87.92-1.33,1.37-.22.22-.45.45-.69.67l-.78.71a6.43,6.43,0,0,1-2.61,1.42,5.55,5.55,0,0,1-2.17.13,5.28,5.28,0,0,1-1.06-.25,6.35,6.35,0,0,1-.88-.39,6.11,6.11,0,0,1-1.95-1.7,8.05,8.05,0,0,1-.86-1.37,18.52,18.52,0,0,1-1.4-4.14c-.27-1.26-.45-2.46-.61-3.65a79.1,79.1,0,0,1-.4-14l5-.36c1,4.31,2,8.71,3.12,12.79.28,1,.61,2,.94,2.92a9.63,9.63,0,0,0,1,2.16c.06.08.12.12.08,0a1.84,1.84,0,0,0-.7-.59,3.15,3.15,0,0,0-.49-.22,3.25,3.25,0,0,0-.65-.16,3.6,3.6,0,0,0-1.33.07,3.12,3.12,0,0,0-1.18.57l.43-.48c.17-.17.33-.35.49-.54.32-.36.63-.75.94-1.13a71.07,71.07,0,0,0,6.69-10.56c1-1.88,2-3.82,2.91-5.76s1.83-4,2.63-5.82Z" style="fill:#ff8b7b"></path><path d="M394.52,181.17c6.25,1.44,12.56,19.7,12.56,19.7l-12.86,9.23s-3.59-8.51-7.13-15.95C383.39,186.35,388.13,179.71,394.52,181.17Z" style="fill:#263238"></path><path d="M357.17,181.52s-7.09,8-.39,57.61h35.65c.25-5.47-3.19-32.17,2.09-58a93.5,93.5,0,0,0-11.94-1.5,129.69,129.69,0,0,0-15.15,0A66.85,66.85,0,0,0,357.17,181.52Z" style="fill:#263238"></path><path d="M366,188.27c2.24,6-8,21.88-8,21.88L342.78,201a72.88,72.88,0,0,0,9.91-14.5C357.62,176.24,364.2,183.44,366,188.27Z" style="fill:#263238"></path><path d="M335.2,198.09l-6.39-2.69,3.33-5.21s4.53.48,6.2,3.46a2,2,0,0,1-.62,2.61Z" style="fill:#ff8b7b"></path><polygon points="323.62 191.5 329.2 187.81 332.14 190.19 328.81 195.4 323.62 191.5" style="fill:#ff8b7b"></polygon><polygon points="366.87 393.26 367.21 401.22 373.88 401.22 373.54 393.26 366.87 393.26" style="opacity:0.2"></polygon><polygon points="417.24 386.36 410.61 387.08 413.39 395.39 419.82 394.08 417.24 386.36" style="opacity:0.2"></polygon><path d="M383.87,157.64c-1.71,6.39-2.39,10.22-6.33,12.88-5.93,4-13.32-.59-13.55-7.36-.21-6.1,2.63-15.53,9.49-16.81A9,9,0,0,1,383.87,157.64Z" style="fill:#ff8b7b"></path><path d="M388.05,153.88c.88.21,2.67.08,4.28-3.56,2.23-5-7.56-3.6-7.56-3.6s9-4.08,1.32-8c-5-2.55-6.88-.19-7.56,1.75.2-2-.29-4.66-4.88-3.25-7,2.14-1.95,7.68-1.95,7.68a3.87,3.87,0,0,0-4.94.37c-2.24,2-.48,4.83,1.68,7.35-1.29,1.82-1.85,4,1.61,4.81h0a2.72,2.72,0,0,1,2.23,2.63c0,3.41.13,6.19,2.5,8.37s10.63-.93,10.21-5.8a11,11,0,0,0,5.53-2.21C394.78,157.09,389.78,154.59,388.05,153.88Z" style="fill:#263238"></path><path d="M374.76,157.75a7.49,7.49,0,0,1-3.29,3.5c-1.92,1-3-.46-2.56-2.38.39-1.73,1.86-4.33,3.83-4.54S375.55,155.94,374.76,157.75Z" style="fill:#ff8b7b"></path><path d="M369.43,239.13s7.56,50.95,11.71,70c4.55,20.9,28.47,84.89,28.47,84.89l12-2.21s-17.88-60.09-20.48-80.78c-2.81-22.46-8.71-71.93-8.71-71.93Z" style="fill:#407BFF"></path><path d="M374.21,257.28C383,259,382,291.62,381,308.4c-2.53-11.86-6.22-34.68-8.74-50.88A3,3,0,0,1,374.21,257.28Z" style="opacity:0.2"></path><path d="M356.78,239.13s-.92,49.84-.19,70.17c.75,21.14,8.13,90.38,8.13,90.38H376s.41-68,.91-88.77c.55-22.63,3.29-71.78,3.29-71.78Z" style="fill:#407BFF"></path><path d="M406.88,390c-.05,0,2.09,4.38,2.09,4.38l13.51-2.48-1-4.07Z" style="fill:#263238"></path><path d="M362.55,395.18c-.05,0,.64,4.69.64,4.69h13.74l.37-4.19Z" style="fill:#263238"></path></g><g id="freepik--character-2--inject-1"><polygon points="249.4 408.4 256.56 408.4 256.51 391.84 249.36 391.84 249.4 408.4" style="fill:#7f3e3b"></polygon><polygon points="211.4 408.4 218.55 408.4 220.92 391.84 213.76 391.84 211.4 408.4" style="fill:#7f3e3b"></polygon><path d="M219,407.58h-8a.56.56,0,0,0-.57.49l-.94,6.35a1.15,1.15,0,0,0,1.14,1.28c2.81-.05,4.16-.22,7.69-.22,2.18,0,6.67.23,9.67.23s3.18-3,1.93-3.24c-5.6-1.2-7.8-2.87-9.69-4.45A1.81,1.81,0,0,0,219,407.58Z" style="fill:#263238"></path><path d="M256.47,407.58h-7.81a.59.59,0,0,0-.59.49L247,414.42A1.1,1.1,0,0,0,248,415.7c2.81-.05,6.88-.22,10.42-.22,4.14,0,7.73.23,12.58.23,2.94,0,3.62-3,2.38-3.24-5.65-1.22-10.23-1.35-15.2-4.34A3.47,3.47,0,0,0,256.47,407.58Z" style="fill:#263238"></path><path d="M251,182.14l9.77-3.13s9,24.68,11.6,27.29c3.52,3.55,8.56,13,11.34,18.24-.32,1.17-2,3.89-3,4.4-6.89-4.94-16.05-14.36-18-18.51C258.27,201,251,182.14,251,182.14Z" style="fill:#7f3e3b"></path><path d="M248.74,176.76c-3.28,6,8.28,26.14,8.28,26.14l14.59-6.76s-3.34-9.41-7.23-17.47C260.68,171,252.38,170.12,248.74,176.76Z" style="fill:#407BFF"></path><path d="M283.09,223.54l7.36,4.47L285,235.49a31.83,31.83,0,0,1-5.66-7.82Z" style="fill:#7f3e3b"></path><polygon points="295.84 234.31 291.09 237.73 285.01 235.49 290.45 228.01 295.84 234.31" style="fill:#7f3e3b"></polygon><polygon points="256.51 391.84 256.53 400.38 249.38 400.38 249.35 391.84 256.51 391.84" style="opacity:0.2"></polygon><polygon points="213.76 391.84 220.92 391.84 219.7 400.38 212.54 400.38 213.76 391.84" style="opacity:0.2"></polygon><path d="M258.09,172.7s9,24.59,1.94,64.82H221.77c-.41-5.88,2.58-37.51-3.77-65.18a98.46,98.46,0,0,1,12.77-1.62,140.08,140.08,0,0,1,16.27,0A73.5,73.5,0,0,1,258.09,172.7Z" style="fill:#407BFF"></path><path d="M237.93,172.84s6.46,8.42,5.1,64.68h7.1s2.69-48.16-5.24-65.17A41.49,41.49,0,0,0,237.93,172.84Z" style="fill:#fff"></path><path d="M226.48,179.17c.75,4.55-.42,15.45-4.45,28a183.32,183.32,0,0,0-3.43-32.12V175C221.11,174.78,225.77,174.9,226.48,179.17Z" style="opacity:0.2"></path><path d="M232.52,155.51c1.16,5.23,1.83,11.72-1.75,15.21,0,0,2.23,5.31,12,5.31,8.89,0,4.31-5.31,4.31-5.31-5.87-1.39-5.75-8.61-4.83-12.68Z" style="fill:#7f3e3b"></path><path d="M230.77,170.27A24.64,24.64,0,0,0,242,176c-1.71,1.16-3.91,5.32-3.91,5.32s-8.26-3.15-9.88-10.67C229,170.48,230.77,170.27,230.77,170.27Z" style="fill:#407BFF"></path><path d="M230.77,170.27A24.64,24.64,0,0,0,242,176c-1.71,1.16-3.91,5.32-3.91,5.32s-8.26-3.15-9.88-10.67C229,170.48,230.77,170.27,230.77,170.27Z" style="opacity:0.30000000000000004"></path><path d="M246.29,170.07s2.27,4.77-1.89,5.88a12.34,12.34,0,0,1,5,4.62s2.94-5.87-.59-10.1C248.05,170.28,246.29,170.07,246.29,170.07Z" style="fill:#407BFF"></path><path d="M246.29,170.07s2.27,4.77-1.89,5.88a12.34,12.34,0,0,1,5,4.62s2.94-5.87-.59-10.1C248.05,170.28,246.29,170.07,246.29,170.07Z" style="opacity:0.30000000000000004"></path><path d="M242.22,158.05a15.59,15.59,0,0,0,.25,8.59,4.64,4.64,0,0,1-2.67.4c-2.14-.43-3.43-1.41-5.21-5-.15-.92-1.87-5.61-2.06-6.49Z" style="opacity:0.2"></path><path d="M250.05,150.15a6.53,6.53,0,0,1-1.48,4.88c-1.51,1.78-3.63.73-4.34-1.4-.65-1.91-.64-5.15,1.43-6.15A3.1,3.1,0,0,1,250.05,150.15Z" style="fill:#7f3e3b"></path><path d="M250.05,150.15a6.53,6.53,0,0,1-1.48,4.88c-1.51,1.78-3.63.73-4.34-1.4-.65-1.91-.64-5.15,1.43-6.15A3.1,3.1,0,0,1,250.05,150.15Z" style="opacity:0.2"></path><path d="M227.71,149.89c2.92,6.54,3.35,10.21,7.66,13,6.49,4.23,14.22-.8,14.21-8.1,0-6.56-3.4-16.56-10.76-18C230.77,135.28,224,141.54,227.71,149.89Z" style="fill:#7f3e3b"></path><path d="M226.6,156a7.83,7.83,0,0,0,4.23,2.63c2,.42,2.35-1.53,1.19-3.45-1.05-1.73-2.9-5.09-5.13-3.57C225.41,152.66,225.17,154.36,226.6,156Z" style="fill:#7f3e3b"></path><path d="M250.22,154.83c.22,4.42,4.64,10-3.29,11.27a16.9,16.9,0,0,1-11.88-2.55c-3.47-2.15-4.5-8.21-7.19-12.27-.12-.15-.06-.33.08-.51a1.52,1.52,0,0,1,2.48.28c.9,1.57,2.58,3.86,4.84,4C238.72,155.32,250,150.31,250.22,154.83Z" style="fill:#263238"></path><path d="M234.88,237.52s1,9,2.17,21.19c1.4,13.81,3.13,31.75,4.23,45.42a1,1,0,0,0,0,.18c.21,2.6.39,5,.55,7.26,1.55,22.29,5.16,87.16,5.16,87.16h12.12s4.7-66.2,4.48-88.89C263.39,288,260,237.52,260,237.52Z" style="fill:#263238"></path><path d="M246,394.47c-.06,0,.18,4.51.18,4.51h14l.38-5.07Z" style="fill:#407BFF"></path><path d="M237.05,258.71c1.4,13.81,3.13,31.75,4.23,45.42a1,1,0,0,0,0,.18c2.69-12.95,5.15-24.75,2.51-44Z" style="opacity:0.2"></path><path d="M246.45,237.52s-4.17,51.69-7.1,72.17c-3.21,22.43-16.44,89-16.44,89H209.8s7.11-64.8,8.24-87c1.23-24.1,3.72-74.2,3.72-74.2Z" style="fill:#263238"></path><path d="M209.43,394.33c-.05,0-.26,4.65-.26,4.65h14.4l1-4.79Z" style="fill:#407BFF"></path><path d="M239,148.81c.14.56.54,1,.91.88s.55-.61.42-1.17-.54-1-.91-.88S238.87,148.24,239,148.81Z" style="fill:#263238"></path><path d="M245.32,147.43c.14.57.54,1,.91.88s.55-.6.42-1.17-.54-1-.91-.88S245.19,146.86,245.32,147.43Z" style="fill:#263238"></path><path d="M243.38,148.15a21.52,21.52,0,0,0,3.82,4.26,3.23,3.23,0,0,1-2.55,1.09Z" style="fill:#630f0f"></path><path d="M243.4,157.37a.17.17,0,0,0,.12-.21.18.18,0,0,0-.21-.12,4.6,4.6,0,0,1-4.06-.85.16.16,0,0,0-.23,0,.16.16,0,0,0,0,.24A4.88,4.88,0,0,0,243.4,157.37Z" style="fill:#7f3e3b"></path><path d="M236.61,147.16a.34.34,0,0,0,.23-.19,2.59,2.59,0,0,1,1.84-1.57A.34.34,0,0,0,239,145a.35.35,0,0,0-.39-.29,3.19,3.19,0,0,0-2.35,2,.35.35,0,0,0,.17.45A.42.42,0,0,0,236.61,147.16Z" style="fill:#263238"></path><path d="M247.63,144.55a.46.46,0,0,0,.13-.08.34.34,0,0,0,0-.48,3.41,3.41,0,0,0-2.87-1.18.34.34,0,0,0-.28.39.36.36,0,0,0,.39.29h0a2.7,2.7,0,0,1,2.27.95A.36.36,0,0,0,247.63,144.55Z" style="fill:#263238"></path><path d="M213.86,181.7l9.49,4.39s-9.15,23.32-7.59,26.61c2.13,4.49,3.8,14.46,7.27,19.28-.18,1.17-1.58,4-2.51,4.59-7.59-4.09-15.08-19-15.49-23.48C204.09,202.88,213.86,181.7,213.86,181.7Z" style="fill:#7f3e3b"></path><path d="M218,172.34c-6.74,1-13.92,24.43-13.92,24.43L220.49,204s4-10.35,6.88-18.64C230.39,176.69,225.24,171.28,218,172.34Z" style="fill:#407BFF"></path><path d="M221.46,408.83a2.06,2.06,0,0,0,1.35-.37.93.93,0,0,0,.28-.89.55.55,0,0,0-.32-.48c-.82-.41-3,1-3.27,1.17a.17.17,0,0,0-.07.17.2.2,0,0,0,.14.14A8.62,8.62,0,0,0,221.46,408.83Zm.95-1.48a.53.53,0,0,1,.23,0,.24.24,0,0,1,.12.2.66.66,0,0,1-.19.61,3.34,3.34,0,0,1-2.53.13A6.31,6.31,0,0,1,222.41,407.35Z" style="fill:#407BFF"></path><path d="M219.61,408.57a.12.12,0,0,0,.08,0c.71-.4,2-2,1.81-2.76a.6.6,0,0,0-.57-.45.88.88,0,0,0-.71.22c-.78.68-.79,2.74-.79,2.83a.19.19,0,0,0,.09.16Zm1.23-2.9h.07c.23,0,.25.13.26.17.13.47-.69,1.66-1.39,2.21a3.84,3.84,0,0,1,.68-2.24A.55.55,0,0,1,220.84,405.67Z" style="fill:#407BFF"></path><path d="M259.5,408.83a2.63,2.63,0,0,0,1.72-.44.92.92,0,0,0,.28-.83.57.57,0,0,0-.3-.45c-.89-.49-3.7,1-4,1.14a.18.18,0,0,0-.08.18.17.17,0,0,0,.14.14A12.33,12.33,0,0,0,259.5,408.83Zm1.23-1.48a.73.73,0,0,1,.32.06.21.21,0,0,1,.11.18.57.57,0,0,1-.18.54c-.42.4-1.59.46-3.18.2A8.89,8.89,0,0,1,260.73,407.35Z" style="fill:#407BFF"></path><path d="M257.28,408.57h.06c.85-.39,2.49-1.93,2.32-2.74,0-.19-.18-.43-.65-.48a1.23,1.23,0,0,0-.93.29c-.87.75-1,2.68-1,2.76a.18.18,0,0,0,.08.15A.17.17,0,0,0,257.28,408.57Zm1.61-2.9h.1c.31,0,.33.15.34.19.1.49-1,1.7-1.86,2.23a3.75,3.75,0,0,1,.84-2.2A.85.85,0,0,1,258.89,405.67Z" style="fill:#407BFF"></path><path d="M222.18,231.85l6.75,1-5,6.59s-5.87-1.06-5.95-5.75Z" style="fill:#7f3e3b"></path><polygon points="233.65 237.43 228.85 243.16 223.95 239.43 228.93 232.84 233.65 237.43" style="fill:#7f3e3b"></polygon></g><g id="freepik--character-1--inject-1"><path d="M158.18,177.78s-6.5-2.78-11.71.55-.93,3.92-6.65,6.53.67,6.17,0,9.53c-.8,4-7.51,5.72-3.72,10.39s32.33,7.06,35.44,1.25-4-5.77-2.27-10.71,2.62-8.12-2.17-11.21S163.6,175.5,158.18,177.78Z" style="fill:#263238"></path><path d="M178.17,220c.28,1.62.63,3.46,1,5.18s.8,3.5,1.29,5.22a84.14,84.14,0,0,0,3.49,10.1c.33.83.72,1.61,1.08,2.41l.1.22,0,.07s0,0-.05,0a1,1,0,0,0-.62-.19c-.17,0-.12.08.05,0a3.46,3.46,0,0,0,.71-.31,12.07,12.07,0,0,0,1.84-1.32,63.94,63.94,0,0,0,7.27-7.78l3,1.83a43.67,43.67,0,0,1-6.39,9.89,16.46,16.46,0,0,1-2.46,2.26,9.74,9.74,0,0,1-1.75,1,6,6,0,0,1-2.68.52,5.18,5.18,0,0,1-3.13-1.27,6.71,6.71,0,0,1-1-1.07c-.13-.18-.24-.35-.34-.52s-.17-.3-.23-.41c-.46-.87-1-1.73-1.37-2.61a70.61,70.61,0,0,1-4.26-10.89c-.57-1.85-1.09-3.72-1.51-5.61s-.81-3.74-1.08-5.8Z" style="fill:#ffb573"></path><path d="M175.44,212.2c2.89.54,5.61,12.1,5.61,12.1l-7.49,5.81s-8.24-11.31-6.25-14.57S171.23,211.41,175.44,212.2Z" style="fill:#263238"></path><polygon points="175.35 214.82 178.27 226.46 174.06 229.72 175.35 214.82" style="opacity:0.2"></polygon><path d="M197.17,231.89l5.63-.95-3.29,6.19s-4.43.07-5.82-2.44l.33-.59A4.51,4.51,0,0,1,197.17,231.89Z" style="fill:#ffb573"></path><polygon points="207.66 232.6 205.71 238.16 199.51 237.13 202.8 230.94 207.66 232.6" style="fill:#ffb573"></polygon><polygon points="189.21 408.89 195.87 407.06 192.09 391.53 185.43 393.36 189.21 408.89" style="fill:#ffb573"></polygon><path d="M195.87,405.89l-7.44,2.16a.55.55,0,0,0-.4.61l.86,6.13a1.11,1.11,0,0,0,1.41.87c2.58-.8,3.79-1.31,7.06-2.26,2-.59,7.86-2.06,10.64-2.87s2.13-3.6.9-3.51c-5.52.39-9.63-.08-11.8-1A1.8,1.8,0,0,0,195.87,405.89Z" style="fill:#263238"></path><g style="opacity:0.2"><polygon points="192.09 391.54 194.03 399.54 187.38 401.37 185.43 393.36 192.09 391.54"></polygon></g><path d="M175.44,212.2s3.36,1-.67,41.77l-28,1.76c-.24-11.41-.67-18.43-7.58-41.45A82.78,82.78,0,0,1,151,212a89.17,89.17,0,0,1,12.7-.8C169.18,211.32,175.44,212.2,175.44,212.2Z" style="fill:#407BFF"></path><g style="opacity:0.4"><path d="M175.44,212.2s3.36,1-.67,41.77l-28,1.76c-.24-11.41-.67-18.43-7.58-41.45A82.78,82.78,0,0,1,151,212a89.17,89.17,0,0,1,12.7-.8C169.18,211.32,175.44,212.2,175.44,212.2Z" style="fill:#263238"></path></g><path d="M151.35,197.59c1.06,4,2.33,11.47-.36,14.38,0,0,1.38,4.07,9,3.6,8.35-.53,3.73-4.4,3.73-4.4-4.62-.8-4.72-4.19-4.13-7.41Z" style="fill:#ffb573"></path><path d="M151,212a89,89,0,0,1,12.69-.8l.84,0c1.13,1.86,1.58,4.8-.58,9.28,0,0-11.42-3.78-14.62-8.29Z" style="fill:#ffb573"></path><path d="M154.7,200.11l4.86,3.64a13.94,13.94,0,0,0-.25,2.28c-1.75-.14-4.52-1.8-4.82-3.61A3.82,3.82,0,0,1,154.7,200.11Z" style="opacity:0.2"></path><path d="M146.5,190.79c2,6.55,2.67,9.37,6.84,12,6.26,3.95,13.88.09,13.9-6.93,0-6.31-3.22-16-10.35-17.08A9.33,9.33,0,0,0,146.5,190.79Z" style="fill:#ffb573"></path><path d="M158.16,178.39c.83,3.17-6.73,14.33-10.95,17.39-4-4.39-3.78-10.06-2.05-12.95S151,176.83,158.16,178.39Z" style="fill:#263238"></path><path d="M158.7,178.49c3.35.95,6.86,4.92,5,4.76S153.76,179.51,158.7,178.49Z" style="fill:#263238"></path><path d="M174.77,254s7.86,50.25,10.53,71.12c2.77,21.72,9.59,72.2,9.59,72.2l-9,2.6s-13.37-49.47-17.37-70.61c-4.35-23-14.27-74-14.27-74Z" style="fill:#407BFF"></path><g style="opacity:0.2"><path d="M174.77,254s7.86,50.25,10.53,71.12c2.77,21.72,9.59,72.2,9.59,72.2l-9,2.6s-13.37-49.47-17.37-70.61c-4.35-23-14.27-74-14.27-74Z"></path></g><polygon points="185.24 400.44 195.75 397.38 195.55 393.81 183.66 396.82 185.24 400.44" style="fill:#263238"></polygon><polygon points="168.85 405.92 175.49 407.77 177.27 393.27 170.37 393.27 168.85 405.92" style="fill:#ffb573"></polygon><polygon points="169.5 400.48 176.21 401.94 177.27 393.27 170.37 393.27 169.5 400.48" style="opacity:0.2"></polygon><path d="M175.79,407.1l-7.6-2.09a.62.62,0,0,0-.7.29l-2.34,5.55a1,1,0,0,0,.68,1.44c2.67.68,3.42.79,6.77,1.71,2.05.56,6.94,2.94,12.24,2.94,2.83,0,2.53-3,1.34-3.25-5.33-1.16-8.12-4-9.4-5.89A1.77,1.77,0,0,0,175.79,407.1Z" style="fill:#263238"></path><path d="M168.41,254.35s26.92,57.5,24.55,75.53c-2.89,21.95-15.24,68.19-15.24,68.19l-9.41-1.86s5-46.42,6.94-67.92c2.14-23.43-26.86-41.61-28.69-72.54Z" style="fill:#407BFF"></path><polygon points="167.41 398.38 178.4 400.8 179.45 397.05 167.59 394.41 167.41 398.38" style="fill:#263238"></polygon><path d="M178.05,408.91a2.81,2.81,0,0,0,1.78.06,1,1,0,0,0,.6-.66.44.44,0,0,0-.1-.48c-.63-.66-3.83-.09-4.19,0a.21.21,0,0,0-.15.14.14.14,0,0,0,.07.16A10.68,10.68,0,0,0,178.05,408.91Zm1.75-1a.62.62,0,0,1,.27.13.2.2,0,0,1,0,.2.67.67,0,0,1-.39.43c-.55.24-1.67,0-3.05-.65A9.74,9.74,0,0,1,179.8,407.92Z" style="fill:#407BFF"></path><path d="M176.09,408.11h.07c.94-.13,3.09-1.07,3.28-1.83,0-.18,0-.43-.41-.6a1.36,1.36,0,0,0-1,0,5.31,5.31,0,0,0-2,2.19.15.15,0,0,0,0,.16Zm2.68-2.15.1,0c.27.11.24.22.23.26-.11.46-1.63,1.25-2.64,1.49a4.38,4.38,0,0,1,1.69-1.74A1,1,0,0,1,178.77,406Z" style="fill:#407BFF"></path><path d="M157.52,190.05c.13.55.52.92.87.83s.54-.59.41-1.13-.51-.91-.87-.83S157.39,189.51,157.52,190.05Z" style="fill:#263238"></path><path d="M163.64,188.61c.13.54.52.91.88.83s.53-.59.41-1.13-.52-.92-.88-.83S163.52,188.07,163.64,188.61Z" style="fill:#263238"></path><path d="M163.91,187.55l1.21-.69S164.69,188,163.91,187.55Z" style="fill:#263238"></path><path d="M162,190a14.82,14.82,0,0,0,2.74,3,2.37,2.37,0,0,1-1.84.82Z" style="fill:#ed893e"></path><path d="M160.43,196.67a5.14,5.14,0,0,0,.82-.13.17.17,0,0,0,.12-.2.17.17,0,0,0-.2-.12,4.4,4.4,0,0,1-3.89-.85.17.17,0,0,0-.23,0,.17.17,0,0,0,0,.24A4.64,4.64,0,0,0,160.43,196.67Z" style="fill:#263238"></path><path d="M146.13,197.31a5,5,0,0,0,3.18,2.12c1.73.33,2.44-1.24,1.84-2.79-.54-1.4-2.09-3.25-3.76-2.88A2.25,2.25,0,0,0,146.13,197.31Z" style="fill:#ffb573"></path><path d="M154.77,189.39a.32.32,0,0,0,.29-.25,3.89,3.89,0,0,1,2.18-2.21.33.33,0,0,0,.18-.43.32.32,0,0,0-.42-.18,4.45,4.45,0,0,0-2.57,2.66.32.32,0,0,0,.24.4Z" style="fill:#263238"></path><path d="M164.82,185.35a.36.36,0,0,0,.27-.18.34.34,0,0,0-.15-.44,3.23,3.23,0,0,0-3,0,.32.32,0,0,0-.11.44.33.33,0,0,0,.45.12h0a2.6,2.6,0,0,1,2.36,0A.47.47,0,0,0,164.82,185.35Z" style="fill:#263238"></path><path d="M143.47,223.61c-.61,3.66-1.21,7.41-1.77,11.12s-1.06,7.43-1.35,11.11l-.1,1.32a4.56,4.56,0,0,0,0,.87,20.87,20.87,0,0,0,.46,2.4c.44,1.69,1,3.45,1.61,5.2,1.19,3.52,2.6,7.05,4,10.57l-3.08,1.64a94.12,94.12,0,0,1-5.85-10.13,52.24,52.24,0,0,1-2.37-5.53,21.87,21.87,0,0,1-.89-3.16,10.33,10.33,0,0,1-.2-2l0-1.53q.15-5.92.85-11.69c.44-3.86,1-7.66,1.75-11.51Z" style="fill:#ffb573"></path><path d="M139.22,214.28c-2.75,1-5.51,10.89-5.51,10.89l11.36,7.09s3.46-8.31,2.05-11.85C145.66,216.71,142.35,213.11,139.22,214.28Z" style="fill:#263238"></path><path d="M198.7,406.32a2.61,2.61,0,0,0,1.48-.87.94.94,0,0,0,.07-.85.55.55,0,0,0-.39-.34c-.94-.21-3.19,1.91-3.45,2.15a.17.17,0,0,0,0,.19.15.15,0,0,0,.16.09A11,11,0,0,0,198.7,406.32Zm.78-1.71a.69.69,0,0,1,.31,0,.21.21,0,0,1,.15.14.61.61,0,0,1,0,.56c-.3.48-1.37.86-2.91,1A8.79,8.79,0,0,1,199.48,404.61Z" style="fill:#407BFF"></path><path d="M196.57,406.69s.05,0,.06,0c.69-.58,1.84-2.46,1.5-3.18-.08-.17-.27-.35-.72-.27a1.19,1.19,0,0,0-.79.52,4.58,4.58,0,0,0-.25,2.84.17.17,0,0,0,.1.13Zm.8-3.15.1,0c.29,0,.34.06.36.09.21.43-.53,1.86-1.19,2.58a3.71,3.71,0,0,1,.25-2.29A.86.86,0,0,1,197.37,403.54Z" style="fill:#407BFF"></path><path d="M157.78,189l1.22-.68S158.57,189.48,157.78,189Z" style="fill:#263238"></path><path d="M146.28,254.11l-.55,2.55c-.09.2.15.39.48.37L175,255.21c.25,0,.45-.15.46-.31l.09-2.52c0-.17-.22-.31-.5-.29l-28.32,1.79A.53.53,0,0,0,146.28,254.11Z" style="fill:#263238"></path><path d="M150.29,257l-.76,0c-.15,0-.27-.06-.27-.16l.15-3.27c0-.1.13-.18.28-.19l.76-.05c.15,0,.27.06.27.16l-.15,3.27C150.56,257,150.44,257,150.29,257Z" style="fill:#407BFF"></path><path d="M172.87,255.62l-.75,0c-.16,0-.28-.07-.27-.16l.15-3.28c0-.09.13-.18.28-.19l.76,0c.15,0,.27.06.27.15l-.15,3.28C173.15,255.52,173,255.61,172.87,255.62Z" style="fill:#407BFF"></path><path d="M161.58,256.33l-.76.05c-.15,0-.27-.06-.27-.16l.16-3.27c0-.1.13-.19.28-.2l.76,0c.15,0,.27.06.26.15l-.15,3.28C161.86,256.23,161.73,256.32,161.58,256.33Z" style="fill:#407BFF"></path><path d="M146.14,265.53l5.67,4.84-6.93,1.14s-2.73-3.48-1.58-6.11Z" style="fill:#ffb573"></path><polygon points="152.96 276.06 147.11 276.7 144.88 271.51 151.81 270.37 152.96 276.06" style="fill:#ffb573"></polygon></g><g id="freepik--Brainstorm--inject-1"><circle cx="304.39" cy="115.97" r="49.8" style="fill:#407BFF"></circle><path d="M203.69,96.18l-.66-.75a22,22,0,0,1,14.63-5.58v1A21,21,0,0,0,203.69,96.18Z" style="fill:#407BFF"></path><path d="M198,104.49l-.94-.35a21.85,21.85,0,0,1,2.29-4.46l.83.56A21.32,21.32,0,0,0,198,104.49Z" style="fill:#407BFF"></path><circle cx="217.66" cy="111.87" r="18.52" transform="translate(-15.35 186.67) rotate(-45)" style="fill:#407BFF"></circle><circle cx="180.42" cy="148.97" r="11.36" style="fill:#407BFF"></circle><circle cx="380.64" cy="116.22" r="9.01" style="fill:#407BFF"></circle><path d="M330.89,107.33a26.5,26.5,0,1,0-37.39,24.14v4.69h21.78v-4.69A26.48,26.48,0,0,0,330.89,107.33Z" style="fill:#fff"></path><polygon points="313.4 148.97 295.38 148.97 293.5 136.16 315.28 136.16 313.4 148.97" style="opacity:0.2"></polygon><polygon points="308.84 151.1 299.94 151.1 299.02 148.97 309.76 148.97 308.84 151.1" style="opacity:0.4"></polygon><path d="M301.56,113.37a11.81,11.81,0,0,0-3-4.68c-3.13-3.12-7-4.17-8.75-2.39-.9.9-1.11,2.35-.58,4.07a11.77,11.77,0,0,0,3,4.67c2.09,2.1,4.51,3.26,6.42,3.26a3.7,3.7,0,0,0,1.3-.22l1.77,18.14a.66.66,0,0,0,.66.6h.06a.66.66,0,0,0,.6-.73l-1.85-18.91A4.09,4.09,0,0,0,301.56,113.37Zm-8.39.73a10.58,10.58,0,0,1-2.65-4.12,2.77,2.77,0,0,1,.26-2.75,1.94,1.94,0,0,1,1.41-.48c1.43,0,3.51.93,5.46,2.88a10.43,10.43,0,0,1,2.65,4.12,2.75,2.75,0,0,1-.26,2.75C299,117.58,296,116.87,293.17,114.1Z" style="fill:#407BFF"></path><path d="M318.94,106.3c-.91-.91-2.35-1.12-4.07-.59a12.82,12.82,0,0,0-7.65,7.66,4.11,4.11,0,0,0,.36,3.81l-1.85,18.91a.67.67,0,0,0,.6.73h.06a.66.66,0,0,0,.66-.6l1.77-18.14a3.71,3.71,0,0,0,1.31.22c1.9,0,4.32-1.16,6.41-3.26a11.77,11.77,0,0,0,3-4.67C320.05,108.65,319.84,107.2,318.94,106.3Zm-.68,3.68a10.47,10.47,0,0,1-2.65,4.12c-2.77,2.77-5.79,3.48-6.87,2.4a2.75,2.75,0,0,1-.26-2.75,10.54,10.54,0,0,1,2.65-4.12h0a10.46,10.46,0,0,1,4.13-2.65,4.66,4.66,0,0,1,1.35-.23,2,2,0,0,1,1.39.48A2.75,2.75,0,0,1,318.26,110Z" style="fill:#407BFF"></path></g></svg>