<svg xmlns="http://www.w3.org/2000/svg" viewBox="0 0 750 500"><path d="M720.28 125.93s-8.36-5.1-17.6 14.78S690.07 172 690.07 172s-2.49 4.18-5.39 1.61-7-10-11.76-8.48c-4.9 1.59-6.33 7.18-5.09 15.27s3.29 25.91 3.48 27.52-.65 4-2.91 2.52-15.46-15.11-21.58-8.46 1 28.62 1.78 31 .29 3.47-.85 4.12-5.14-4.37-9-8.11-9.11-7.38-12.31-3.25-3.68 20.83 13.15 47.31l8.6 11.76 14.57-1.34c31-4.76 43.26-16.1 44.26-21.23s-5.16-6.65-10.54-7.13-11.8-.21-12.06-1.49.24-2.31 2.55-3.34 23.54-10.11 24.53-19.1-18-9.91-20.57-10.67-1.33-2.94 0-3.85 16.11-11.1 23-15.49 10.07-9.12 8.07-13.86c-2-4.57-10.27-2.77-14.12-3.27s-2.33-5.12-2.33-5.12 6.37-10 15.25-30.07-.71-23-.71-23" fill="#f5f5f5"/><path d="M712 143.72s-.05.15-.17.43-.3.72-.52 1.25l-2.06 4.75c-1.8 4.13-4.44 10.09-7.73 17.44-6.58 14.7-15.84 34.92-26.14 57.22s-19.64 42.52-26.3 57.19l-7.87 17.37-2.14 4.72c-.25.52-.44.93-.57 1.22a4.43 4.43 0 01-.21.41 3.57 3.57 0 01.16-.43c.13-.3.3-.71.52-1.24.48-1.11 1.18-2.71 2.06-4.76 1.8-4.13 4.44-10.08 7.73-17.43 6.58-14.7 15.84-34.92 26.14-57.23s19.61-42.51 26.27-57.17c3.32-7.31 6-13.24 7.87-17.36l2.15-4.72c.24-.53.43-.93.57-1.23s.24-.43.24-.43z" fill="#e0e0e0"/><path d="M678.27 175.77a4.14 4.14 0 01.41 1c.24.63.55 1.56.93 2.71.74 2.31 1.69 5.51 2.67 9.07l2.47 9.12.76 2.76a3.83 3.83 0 01.23 1 4.14 4.14 0 01-.41-1c-.24-.63-.55-1.56-.92-2.72-.72-2.31-1.63-5.53-2.61-9.09l-2.53-9.1-.77-2.75a4.51 4.51 0 01-.23-1zm8.82 25.87c0-.13 6.48-2.38 14.57-5s14.69-4.69 14.73-4.56-6.48 2.38-14.57 5-14.69 4.69-14.73 4.56zm-17.37 33.54a5.3 5.3 0 011.08-.09l2.92-.1c2.46-.09 5.87-.22 9.62-.51s7.14-.63 9.6-.91l2.9-.33a4.21 4.21 0 011.08-.06 5 5 0 01-1 .25c-.68.13-1.67.3-2.89.48-2.44.37-5.84.79-9.6 1.07s-7.18.36-9.66.35c-1.23 0-2.23 0-2.92-.05a4.15 4.15 0 01-1.13-.1zm-13.12-21.64a4.06 4.06 0 01.6.79c.36.52.88 1.29 1.5 2.25 1.25 1.91 2.94 4.57 4.78 7.52s3.49 5.64 4.66 7.6c.59 1 1.05 1.78 1.36 2.34a3.73 3.73 0 01.45.89 3.44 3.44 0 01-.61-.79c-.36-.53-.87-1.29-1.5-2.25-1.24-1.91-2.93-4.57-4.78-7.53s-3.49-5.64-4.66-7.6c-.58-1-1-1.78-1.36-2.33a4.13 4.13 0 01-.44-.89zm-19.1 27.66a5.93 5.93 0 01.77 1l1.93 2.88c1.6 2.44 3.8 5.83 6.2 9.59s4.55 7.19 6.08 9.68l1.8 3a7.18 7.18 0 01.6 1.12 6.06 6.06 0 01-.77-1l-1.92-2.88c-1.61-2.45-3.81-5.84-6.21-9.6s-4.54-7.19-6.08-9.68c-.72-1.18-1.32-2.18-1.79-3a6 6 0 01-.61-1.11zm17.15 26.49a6.42 6.42 0 011.35-.16l3.7-.26c3.12-.22 7.44-.54 12.19-1s9-1 12.15-1.43l3.67-.49a7.58 7.58 0 011.36-.12 6.76 6.76 0 01-1.33.31c-.86.17-2.11.39-3.65.64-3.1.51-7.39 1.11-12.15 1.59s-9.09.75-12.22.88c-1.57.06-2.83.1-3.71.1a8 8 0 01-1.36-.06z" fill="#e0e0e0"/><path d="M124.79 224.43c23.33-15.57 29-45 28.53-71.59-.09-4.44.48-9.1-1.6-13s-7-6.66-11.07-4.85c-3.35 1.5-4.87 5.31-6.78 8.45a26.23 26.23 0 01-10.69 9.77c-2.88 1.42-6.43 2.26-9.23.68-3.84-2.16-4.22-7.45-4.12-11.86l.54-24.64c.09-4.41.18-8.91-1.15-13.12s-4.33-8.13-8.56-9.37-9.52 1.1-10.49 5.4c-.4 1.79-.06 3.66-.21 5.49s-1 3.84-2.82 4.32-3.55-.79-4.87-2.09c-4.54-4.53-7.58-10.3-10.41-16s-5.59-11.63-9.69-16.54-9.84-8.85-16.23-9.31-13.26 3.35-15 9.52 1.86 12.55 5.78 17.64a99.14 99.14 0 0020.47 19.77c1.4 1 2.9 2.09 3.42 3.73.92 3-1.94 5.83-4.9 6.76-3.35 1-7 .65-10.44 1s-7.29 1.81-8.66 5c-1.89 4.48 1.85 9.26 5.56 12.41a85.7 85.7 0 0025 14.77c3.27 1.24 6.71 2.33 9.32 4.65s4.16 6.3 2.51 9.38-5.78 4-9.21 3.34-6.48-2.57-9.74-3.84c-6.11-2.38-14-2.08-18.05 3.1-2.64 3.4-2.94 8.19-1.7 12.31s3.84 7.69 6.6 11c9.66 11.54 22.12 20.9 36.28 26s27.33 6.6 41.56 1.7" fill="#ebebeb"/><path d="M123 224.94c-3.75-13.45-14-45.1-20.15-60l-4.57-11c-1.51-3.61-3-7.18-4.69-10.59a197.94 197.94 0 00-10.8-19c-3.74-5.9-7.5-11.36-11-16.45s-7-9.74-10.28-13.87a157.36 157.36 0 00-17-18.31c-2.17-2-3.9-3.5-5.09-4.5L38 70c-.31-.25-.48-.37-.48-.37s.14.15.43.42l1.32 1.18c1.15 1 2.86 2.56 5 4.59a167 167 0 0116.8 18.41c3.26 4.14 6.64 8.82 10.19 13.9s7.27 10.56 11 16.45a198.47 198.47 0 0110.73 19c1.67 3.4 3.16 7 4.67 10.57s3 7.29 4.57 11c6.11 14.88 16.39 46.5 20.17 59.91" fill="#e0e0e0"/><path d="M93.38 143.28a10 10 0 00.44-1.88c.24-1.22.54-3 .88-5.18.69-4.38 1.44-10.46 2.25-17.17s1.66-12.76 2.44-17.12c.38-2.18.71-3.94 1-5.15a11.48 11.48 0 00.31-1.9 10.1 10.1 0 00-.56 1.84c-.33 1.2-.73 3-1.17 5.13-.97 4.34-1.87 10.41-2.68 17.15s-1.51 12.67-2.05 17.19c-.27 2.1-.5 3.85-.68 5.2a11.22 11.22 0 00-.18 1.89zm-57.26-11.45a2.13 2.13 0 00.59.1l1.7.17c1.48.15 3.61.35 6.23.68 5.25.62 12.48 1.75 20.4 3.34s15 3.38 20.1 4.81c2.55.7 4.6 1.32 6 1.74l1.64.48a2 2 0 00.58.13 2 2 0 00-.54-.25c-.44-.17-1-.37-1.6-.6-1.39-.5-3.43-1.2-6-2-5.07-1.55-12.17-3.4-20.1-5s-15.12-2.61-20.43-3.12c-2.63-.27-4.78-.4-6.26-.46h-1.71a2.41 2.41 0 00-.6-.02zm81.3 74.8a4 4 0 00.39-.69l1-2c.86-1.78 2-4.38 3.48-7.61 2.86-6.45 6.53-15.49 10.46-25.51s7.52-19.12 10.25-25.62l3.28-7.68c.36-.86.66-1.55.89-2.09a4.24 4.24 0 00.27-.75 2.84 2.84 0 00-.39.69l-1 2c-.86 1.78-2.05 4.38-3.47 7.6-2.86 6.46-6.54 15.5-10.46 25.52s-7.53 19.08-10.28 25.58l-3.28 7.68-.88 2.09a3.4 3.4 0 00-.26.79zm-75.93-25.41a4 4 0 00.75.3l2.21.75 8.14 2.73c6.87 2.3 16.32 5.59 26.75 9.25s19.92 6.88 26.83 9.07c3.45 1.09 6.26 1.95 8.2 2.51l2.25.63a3.89 3.89 0 00.8.18 4.27 4.27 0 00-.76-.31l-2.21-.75-8.14-2.71c-6.87-2.3-16.32-5.59-26.75-9.25s-19.91-6.89-26.82-9.07c-3.46-1.09-6.26-1.95-8.21-2.51l-2.24-.64a4.19 4.19 0 00-.8-.18z" fill="#e0e0e0"/><path d="M508.76 70.37h126.07L610.17 87.9v14.64a27.28 27.28 0 01-27.48 27.07h-79.11a27.28 27.28 0 01-27.48-27.07 32.41 32.41 0 0132.66-32.17z" fill="#f5f5f5"/><path d="M588.9 89.94c0 .14-21 .26-47 .26s-47-.12-47-.26 21-.26 47-.26 47 .11 47 .26zm0 9.74c0 .14-21 .26-47 .26s-47-.12-47-.26 21-.26 47-.26 47 .11 47 .26z" fill="#e0e0e0"/><path d="M317.49 370.42H168.31l24.3 17.58v34.5a7.2 7.2 0 007.21 7.2h117.67a7.2 7.2 0 007.21-7.2v-44.88a7.21 7.21 0 00-7.21-7.2z" fill="#f5f5f5"/><path d="M311.27 394.8c0 .15-22.5.26-50.25.26s-50.25-.11-50.25-.26 22.49-.26 50.25-.26 50.25.12 50.25.26zm0 13.25c0 .14-22.5.26-50.25.26s-50.25-.12-50.25-.26 22.49-.26 50.25-.26 50.25.12 50.25.26z" fill="#e0e0e0"/><rect x="408.7" y="200.4" width="252.17" height="219.68" rx="38.79" fill="#7e57c2"/><rect x="408.7" y="200.4" width="252.17" height="219.68" rx="38.79" opacity=".4"/><path fill="#7e57c2" d="M660.8 276.98h37.77l-38.62 38.63.85-38.63z"/><path d="M660.8 276.98h37.77l-38.62 38.63.85-38.63z" opacity=".4"/><path d="M402.66 300.73l-15.83-18c-4.28-4.28-5.75-6.34-4.89-7.09 1.14-1 .65-.67 9.54 6 0 0-12.6-9.63-8.23-9.69.77 0 2.91 1.24 5.2 2.74-3.12-2.65-4-4.44-3.39-5.29 1-1.48 8.72 3.87 12.27 6.44-2.9-2.16-8.43-6.35-9.4-7.67-1.34-1.8 1.37-1.65 3.57-.9 2.47.84 16.12 7.81 20.16 9.61a2.61 2.61 0 003.76-1.27c1.49-6.26 6-10.33 7.72-10.86s3.05 1.67 1.82 3.27a23.86 23.86 0 00-2.66 5.98 15.47 15.47 0 00-.81 5.13c0 2 .14 3.73.27 5.18l14.47 19.85-24.2 14z" fill="#b78876"/><path d="M397 284.44c-.16.22-3-1.71-6.28-4.32s-5.84-4.91-5.65-5.12 3 1.73 6.28 4.32 5.79 4.89 5.65 5.12zm3.06-3.16c-.16.23-3.27-1.67-6.95-4.23s-6.54-4.83-6.38-5.05 3.27 1.66 6.95 4.22 6.54 4.83 6.38 5.06zm2.24-3.36c-.16.23-3.14-1.51-6.65-3.89s-6.23-4.49-6.08-4.73 3.13 1.51 6.65 3.89 6.23 4.5 6.08 4.73z" fill="#aa6550"/><path d="M423.11 287l57.68 73.14-13.21 30.75s-15.82-3.5-20.62-10.16-44.3-80-44.3-80z" fill="#b78876"/><path d="M569.53 184.68c4.15 3.6 4.14 9.94 3.66 15.41s-.85 11.7 2.94 15.68c3.13 3.28 8.8 4.71 9.52 9.18a5.15 5.15 0 01-8.51 4.67c1.22 3.53.38 7.94-2.68 10.08s-8.19.82-9.14-2.79a4.53 4.53 0 11-8.89 1.62M510.1 221.6a5.46 5.46 0 11-10.1-4.21c.95-2.08 3.2-3.58 3.42-5.86.26-2.75-2.55-4.72-5-5.92s-5.41-2.76-5.68-5.52 2.12-4.73 4.11-6.51 4-4.54 2.73-6.91c-.63-1.22-1.94-1.91-2.79-3-1.87-2.38-.89-6.17 1.5-8s5.69-2.12 8.67-1.59 5.78 1.77 8.68 2.64a36.21 36.21 0 0028.84-3.78" fill="#263238"/><path d="M527.81 286.09a20.08 20.08 0 0023.59-15.4l14.19-65.06a28.87 28.87 0 00-22.27-34.9l-1.48-.22a29.06 29.06 0 00-32.55 22.25c-3.16 13.73-6.47 28.94-7.47 36.41-2.07 15.47 13 20.13 13 20.13l-2.71 13a20.08 20.08 0 0015.68 23.76z" fill="#b78876"/><path d="M512.07 203a2.24 2.24 0 001.8 2.54 2.13 2.13 0 002.56-1.65 2.22 2.22 0 00-1.79-2.54 2.14 2.14 0 00-2.57 1.65z" fill="#263238"/><path d="M511.5 200.8c.23.33 2.08-.67 4.46-.31s3.93 1.79 4.23 1.54c.15-.11-.06-.67-.73-1.33a6.12 6.12 0 00-3.34-1.59 5.89 5.89 0 00-3.6.6c-.81.46-1.13.94-1.02 1.09zm23.76 6a2.23 2.23 0 001.8 2.54 2.13 2.13 0 002.56-1.66 2.22 2.22 0 00-1.8-2.53 2.12 2.12 0 00-2.56 1.65z" fill="#263238"/><path d="M534.76 204.66c.23.32 2.08-.67 4.45-.31s3.94 1.79 4.24 1.54c.14-.11-.06-.67-.74-1.33a6.12 6.12 0 00-3.34-1.59 5.89 5.89 0 00-3.6.6c-.77.43-1.13.94-1.01 1.09zM523.57 221c0-.14-1.41-.61-3.75-1.26-.6-.15-1.15-.36-1.19-.79a3.14 3.14 0 01.66-1.73q1.19-2.07 2.47-4.35c3.45-6.21 6-11.34 5.79-11.48s-3.25 4.78-6.7 11l-2.4 4.38a3.6 3.6 0 00-.66 2.34 1.54 1.54 0 00.87 1 4.26 4.26 0 001 .29 15.94 15.94 0 003.91.6zm11.93-25.73c.14.68 2.56.72 5.29 1.46s4.87 1.83 5.33 1.31c.2-.25-.1-.92-.91-1.67a9.52 9.52 0 00-8.09-2.11c-1.12.26-1.67.74-1.62 1.01zm-22.12-1.21c.34.6 2 .28 4 .54s3.58.9 4 .39c.21-.25 0-.83-.62-1.45a5.87 5.87 0 00-6.5-.74c-.72.45-1.03.97-.88 1.26zm37.93-7.82l.07.08a12.26 12.26 0 013.36 8.52v.31c0 4.5-.81 9-.8 13.45s.87 9.19 3.68 12.69c1.15 1.45 3.39 2.65 4.7 1.35a3.8 3.8 0 00.85-1.94c2.38-10.51 6.66-19.51 8.27-30.63a9.47 9.47 0 00-2.77-8.2c-2.08-2-4.67-4.16-7.44-3.31s-6.82 5.2-9.13 7" fill="#263238"/><path d="M559.36 211.85c.28-.08 11.07-1.59 9.18 8.92s-12 6.45-12 6.14 2.82-15.06 2.82-15.06z" fill="#b78876"/><path d="M560.46 223.51s.16.16.44.35a1.87 1.87 0 001.37.28c1.18-.21 2.43-1.8 2.82-3.69a6.16 6.16 0 000-2.71 2.16 2.16 0 00-1.13-1.65.94.94 0 00-1.17.31c-.19.26-.16.49-.22.49s-.19-.21 0-.63a1.16 1.16 0 01.53-.58 1.41 1.41 0 011.06-.09 2.63 2.63 0 011.62 2 6.31 6.31 0 01.11 3c-.45 2.11-1.89 3.89-3.48 4.06a2 2 0 01-1.63-.58c-.35-.31-.36-.55-.32-.56z" fill="#aa6550"/><path d="M561.35 180.25c3.22-3.85-3-10.95-8-13.36s-12.2-.87-17.64.09c-3.43.61-6.91 1.65-10.33 1a23.28 23.28 0 01-6.44-2.69 17.43 17.43 0 00-6.54-2.29 6.44 6.44 0 00-6.07 2.71c-1.19 2-.36 5.13 1.88 5.78a5.24 5.24 0 10-2.79 9.4c-1.33-1.36-3.91.19-4 2.09s1.41 3.51 3 4.52c4.11 2.58 9.33 2.71 14.11 1.85s9.36-2.64 14.12-3.62 12.75-2.84 17.05-.57c3.16 1.66 4.9 6 6.91 5.41a6.53 6.53 0 004-4.26 19 19 0 00.67-6" fill="#263238"/><path d="M581.92 229a1.62 1.62 0 00.55-.24 3.13 3.13 0 001.14-1.3 4.59 4.59 0 00.34-2.72 5.46 5.46 0 00-1.88-3.08 13.7 13.7 0 00-3.79-2.21 24.61 24.61 0 01-4.43-2.14 8.84 8.84 0 01-3.21-4.17 14.62 14.62 0 01-.93-5.68c.1-4 1.21-7.75 1.48-11.28s-.18-6.84-1.68-9.13a8.47 8.47 0 00-5-3.75 5.84 5.84 0 00-1.71-.17 2.21 2.21 0 00-.59.09 8.72 8.72 0 012.25.28 8.44 8.44 0 014.72 3.75c1.39 2.22 1.87 5.44 1.52 8.89s-1.42 7.2-1.54 11.31a15 15 0 001 5.88 9.32 9.32 0 003.43 4.39 25.25 25.25 0 004.53 2.14 13.7 13.7 0 013.71 2.08 5.25 5.25 0 011.84 2.86 4.34 4.34 0 01-.24 2.57 3.44 3.44 0 01-1.51 1.63zm-74.05-57.76a1.81 1.81 0 00-.46-.25 3.88 3.88 0 00-.58-.23 5 5 0 00-.85-.21 6.33 6.33 0 00-5.3 1.62 8.48 8.48 0 00-1.88 6.26 10.42 10.42 0 003.86 7.13 16.13 16.13 0 008.74 3.51 35.64 35.64 0 0010.38-.63 46.92 46.92 0 0015.3-5.92 46.57 46.57 0 016.32-3.27 16.8 16.8 0 016-1.23 17.91 17.91 0 018.62 2 30 30 0 012.79 1.77 12.26 12.26 0 00-2.69-2 17.64 17.64 0 00-8.73-2.23 17.22 17.22 0 00-6.16 1.19 47.17 47.17 0 00-6.39 3.27 47.22 47.22 0 01-15.16 5.81 35.41 35.41 0 01-10.23.65 15.75 15.75 0 01-8.49-3.36 10.05 10.05 0 01-3.76-6.81 8.14 8.14 0 011.72-6 6.21 6.21 0 015.06-1.67 10.81 10.81 0 011.89.6z" fill="#455a64"/><path d="M513.72 162.49a6 6 0 00.37 2.36 9.92 9.92 0 004.14 5 12.41 12.41 0 004.19 1.74 17.78 17.78 0 005.2.27c3.67-.27 7.51-1.53 11.54-2.57s8.06-1.59 11.54-.66a15 15 0 017.84 5.09 15.59 15.59 0 013 5.64c.4 1.47.45 2.33.52 2.32a4.77 4.77 0 000-.62 12.43 12.43 0 00-.29-1.75 15.08 15.08 0 00-2.91-5.83 15.29 15.29 0 00-8-5.33c-3.6-1-7.74-.43-11.79.62s-7.86 2.31-11.45 2.6a17.62 17.62 0 01-5.07-.21 12.45 12.45 0 01-4.08-1.62 10 10 0 01-4.14-4.74 14.24 14.24 0 01-.61-2.31z" fill="#455a64"/><path d="M518.83 228.85a11.38 11.38 0 00.81 3 3.67 3.67 0 002.25 2 3.28 3.28 0 003-.91 5.31 5.31 0 001.41-2.94c.16-1 0-2.25-1-2.57a2.56 2.56 0 00-1.23 0l-5.54 1" fill="#aa6550"/><path d="M519.8 233.05a7.8 7.8 0 002.76.52 3.92 3.92 0 002.58-1.18 4.16 4.16 0 001.11-3.23 3.64 3.64 0 00-.2-.88c-.13-.27-.09-.25-.32-.28s-.59 0-.89.05l-.93.07c-1.2.09-2.28.16-3.19.21a9.52 9.52 0 01-3-.06 10.17 10.17 0 012.91-.6c.9-.13 2-.26 3.17-.4l.92-.1a9 9 0 011-.09 1.25 1.25 0 01.73.26 1.46 1.46 0 01.41.61 4.34 4.34 0 01.26 1.12 4.91 4.91 0 01-1.43 3.93 4.47 4.47 0 01-3.17 1.23 4.14 4.14 0 01-2.18-.61c-.34-.28-.57-.53-.54-.57z" fill="#263238"/><path d="M514.84 249.3s10.08 3.82 19.89 1c0 0-7.4 6.21-20.9 3.83z" fill="#aa6550"/><path d="M530.22 392.67a11.59 11.59 0 01-1.38-1.06c-.43-.35-1-.78-1.61-1.24s-1.35-1-2.2-1.55-1.73-1.15-2.76-1.72-2.12-1.17-3.29-1.77a51.32 51.32 0 00-16.32-4.88c-1.31-.14-2.55-.3-3.72-.33s-2.26-.08-3.25-.07-1.9.06-2.69.09-1.47.09-2 .15a10.53 10.53 0 01-1.73.12 13.16 13.16 0 011.71-.32 20 20 0 012-.24c.79-.06 1.69-.17 2.7-.17s2.1-.06 3.28 0 2.44.16 3.76.28a54.7 54.7 0 018.46 1.74 53 53 0 018 3.19c1.17.62 2.3 1.19 3.29 1.83s1.93 1.21 2.75 1.79 1.54 1.14 2.17 1.62 1.15.94 1.56 1.32a10.54 10.54 0 011.27 1.22z" fill="#fafafa"/><path d="M471.45 341.31l8.2-35.53c3.14-13.36 6.86-26.2 13.11-27.72v4.13l-2.68 101.51s-16.71 19-38 8.46c-6.66-3.31-18.81-26.56-18.81-26.56s-28.27-50.44-27.09-52.73 18.45-24.55 20.21-25.66z" fill="#7e57c2"/><path d="M555.83 268c16.3 3.12 34.65 12.63 43.1 37 3.08 8.9 25.52 74.51 25.52 74.51l-38.27-.8L580 365.2l3 21.95 2.59 31.3-96.64 1.63.68-47.16.93-93.8s1.08-1.42 17.75-10.61c10.34-5.71 47.52-.51 47.52-.51z" fill="#7e57c2"/><path d="M565.47 330.74c1.59 19.8 3.41 25.92 5 45.72a17.58 17.58 0 001 5.5 6 6 0 004 3.65c2.82.57 6.48 2.61 7.27-.15l-2.67-19.07a37.61 37.61 0 00-2.64-8.05c-5.93-13.17-8.12-13.94-12-27.6" opacity=".2"/><path d="M508.3 278.66l.32-2.06 3.09-19.76a2.3 2.3 0 012.46-1.94l38.05 3.18a4.37 4.37 0 014 4.68l-.85 11.48-11.88 15.5-17.11 2.67" fill="#7e57c2"/><path d="M489.19 315.81c.15 0 .26 15.48.26 34.57s-.11 34.57-.26 34.57-.26-15.48-.26-34.57.12-34.57.26-34.57zM587 381.89s0-.07-.12-.22-.19-.4-.32-.68l-1.16-2.63-4.17-9.71-13.59-32.11c-2.64-6.28-5.15-12.26-7.43-17.71a33.36 33.36 0 01-2.46-8 44.13 44.13 0 01-.66-7.3 29.44 29.44 0 011.52-10.45l.31-.83.35-.7a6.14 6.14 0 01.6-1.06l.42-.62a1.75 1.75 0 01.16-.2 20.55 20.55 0 00-1.65 3.48 30.24 30.24 0 00-1.34 10.38 38.16 38.16 0 003.19 15.15l7.47 17.69 13.45 32.17 4 9.77 1.07 2.67.27.7a1.21 1.21 0 01.09.21z" fill="#263238"/><path d="M567.69 271.49a12.53 12.53 0 01-1.11 1 17.19 17.19 0 01-3.65 2.13 27.4 27.4 0 01-6.42 1.8 79.61 79.61 0 01-8.8.87c-3.28.14-6.86.08-10.7.15a49.52 49.52 0 00-12.1 1.48 22.3 22.3 0 00-11.38 6.71 15.71 15.71 0 00-3.16 6.24 13.36 13.36 0 00.12 7.15 11.35 11.35 0 001.67 3.2 8.43 8.43 0 002.7 2.28 5.88 5.88 0 003.34.7 4.57 4.57 0 002.94-1.5 8 8 0 001.48-6.33 10.39 10.39 0 00-1-3.12 15.25 15.25 0 00-1.77-2.69 18.84 18.84 0 00-10.26-6.07 21.79 21.79 0 00-10.49.12 28.76 28.76 0 00-8 3.43 38.24 38.24 0 00-5.32 4c-1.37 1.2-2.34 2.24-3 2.92l-.74.8a1.84 1.84 0 01-.27.26 32.57 32.57 0 013.9-4.13 36 36 0 015.3-4.06 28.71 28.71 0 018.1-3.54 22 22 0 0110.68-.18 19.21 19.21 0 0110.53 6.19 15.68 15.68 0 011.82 2.7 10.82 10.82 0 011 3.27 10.5 10.5 0 01-.06 3.49 6.93 6.93 0 01-1.53 3.25 5.07 5.07 0 01-3.26 1.67 6.33 6.33 0 01-3.64-.75 9 9 0 01-2.87-2.42 11.85 11.85 0 01-1.76-3.36 13.8 13.8 0 01-.12-7.43 16 16 0 013.27-6.45 22.88 22.88 0 0111.64-6.85A49.71 49.71 0 01537 277c3.85-.06 7.43 0 10.69-.09a80.12 80.12 0 008.77-.79 28.36 28.36 0 006.4-1.7 18.27 18.27 0 003.66-2c.4-.27.67-.52.87-.66a2.08 2.08 0 01.3-.27zm33.07 41.62a1.93 1.93 0 01-.43.07c-.28 0-.69.07-1.23.09a39.61 39.61 0 01-4.53-.11c-1.91-.14-4.17-.43-6.67-.78s-5.24-.72-8.14-.87a31.38 31.38 0 00-8.09.61 20.4 20.4 0 00-6.18 2.35 17.79 17.79 0 00-4.56 4 1.42 1.42 0 01.22-.37 7.2 7.2 0 01.72-1 13.78 13.78 0 013.43-3 20.1 20.1 0 016.26-2.5 30.69 30.69 0 018.23-.66c2.93.15 5.68.55 8.18.92s4.74.7 6.63.88 3.44.26 4.5.27a13.52 13.52 0 011.66.1zm-24.03 44.83a20.15 20.15 0 00-5.74-.49 31.14 31.14 0 00-6.67 1.19c-2.55.69-5.4 1.7-8.6 2.69a35.4 35.4 0 01-10.78 1.87 30.88 30.88 0 01-12.28-2.55 30.55 30.55 0 01-11.2-8.14 23.29 23.29 0 01-4-6.22 14.22 14.22 0 01-1.15-7.51 10.93 10.93 0 013.55-6.69 7.79 7.79 0 013.37-1.72 7.89 7.89 0 016.93 1.87 6 6 0 011.8 3.11 6.07 6.07 0 01-.27 3.51 8.44 8.44 0 01-1.87 2.87 14.91 14.91 0 01-5.49 3.49 16.76 16.76 0 01-3 .83c-.5.09-1 .2-1.49.27l-1.49.18a32.47 32.47 0 01-10.91-.77 34 34 0 01-8.43-3.24 31.12 31.12 0 01-5.61-3.88l-1-.87-.82-.83a13.89 13.89 0 01-1.24-1.34l-.72-.86a2.08 2.08 0 01-.22-.3 2.48 2.48 0 01.27.27l.75.82a14.89 14.89 0 001.27 1.3l.83.81 1 .85a31.58 31.58 0 005.61 3.77 34 34 0 008.37 3.14 32.13 32.13 0 0010.79.7l1.46-.18c.49-.08 1-.19 1.48-.28a16.19 16.19 0 002.93-.82 14.51 14.51 0 005.31-3.39 8 8 0 001.76-2.71 5.73 5.73 0 00.25-3.23 6.26 6.26 0 00-4.67-4.48 7 7 0 00-6.61 1.51 10.33 10.33 0 00-3.37 6.37 13.87 13.87 0 001.1 7.23 23.22 23.22 0 003.88 6.09 30.14 30.14 0 0011 8 30.67 30.67 0 0012.09 2.56 35.16 35.16 0 0010.68-1.8c3.19-1 6-1.94 8.63-2.61a30.92 30.92 0 016.73-1.11 19.94 19.94 0 012.49 0c.71.11 1.32.16 1.8.27l1.09.27a1.62 1.62 0 01.41.18zm-87.87-10.67c-.09 0-.55-1-1.52-2.68a26.1 26.1 0 00-10.67-9.95c-1.7-.86-2.82-1.24-2.79-1.33a3 3 0 01.82.19 16.28 16.28 0 012.13.8 23.37 23.37 0 016.24 4.17 23 23 0 014.59 5.94 17.43 17.43 0 011 2.06 3.11 3.11 0 01.2.8zm-38.8 42.8s-.07-.08-.16-.25-.24-.44-.41-.75c-.36-.66-.88-1.65-1.52-2.93a68.54 68.54 0 01-4.58-11.27 36.42 36.42 0 01-1.43-8.29 25.86 25.86 0 01.19-4.7 28.06 28.06 0 011.18-4.85 21.14 21.14 0 015.87-8.88 14.37 14.37 0 0110.67-3.75 7.92 7.92 0 015.26 2.56 6.46 6.46 0 011.49 5.47 4.86 4.86 0 01-1.42 2.47 5.79 5.79 0 01-2.44 1.33 7.2 7.2 0 01-5.23-.63 11.94 11.94 0 01-3.81-3.25 17.52 17.52 0 01-2.41-4.07A18 18 0 01450 340a17 17 0 012-6.65 17.36 17.36 0 013.14-4.2 16.32 16.32 0 012.57-2.09c.31-.21.57-.34.74-.44l.26-.13s-.32.23-.94.66a18.18 18.18 0 00-2.49 2.14 17.79 17.79 0 00-3 4.19 16.8 16.8 0 00-1.87 6.54 17.56 17.56 0 001.36 8.1 17.28 17.28 0 002.36 3.95 11.57 11.57 0 003.68 3.11 6.7 6.7 0 004.88.58 4.7 4.7 0 003.49-3.44 6 6 0 00-1.38-5 7.4 7.4 0 00-4.92-2.38 13.87 13.87 0 00-10.28 3.61 20.83 20.83 0 00-5.75 8.66 27.07 27.07 0 00-1.19 4.75 25.91 25.91 0 00-.21 4.62 36.65 36.65 0 001.36 8.21 73.11 73.11 0 004.4 11.28l1.43 3c.15.32.27.58.37.78s.05.22.05.22zm-12.35-88.28s.05.14.09.41a12.18 12.18 0 01.15 1.22 25.56 25.56 0 010 4.49 28.54 28.54 0 01-16.12 23.43 25.71 25.71 0 01-4.19 1.61c-.5.16-.91.23-1.18.3s-.42.08-.42.06a12.79 12.79 0 011.54-.55 31.56 31.56 0 004.09-1.75 29.27 29.27 0 0015.92-23.14 32.55 32.55 0 00.17-4.44 12.7 12.7 0 01-.05-1.64zm171.8 43.36a14.62 14.62 0 00-3.86 3.52c-1 1.29-2 3-3.13 4.8a37 37 0 01-4.27 5.65 36 36 0 01-10.25 7.71 30.06 30.06 0 01-3.58 1.53 7.84 7.84 0 01-1.38.4 7.66 7.66 0 011.3-.59c.84-.37 2.06-.89 3.49-1.67a38.5 38.5 0 0010-7.73 38 38 0 004.25-5.55 52.18 52.18 0 013.25-4.78 12.63 12.63 0 012.87-2.65 6.25 6.25 0 01.93-.51c.26-.1.38-.15.38-.13z" fill="#fafafa"/><path d="M555.47 269.2a1.59 1.59 0 01-.46.12l-1.33.24c-1.16.19-2.84.44-4.91.72-4.16.56-9.92 1.22-16.31 1.69a81.06 81.06 0 01-9 .32 25.52 25.52 0 01-7.29-1.25 16.19 16.19 0 01-4.45-2.25 10.94 10.94 0 01-1.06-.85c-.22-.22-.33-.33-.32-.35s.52.4 1.49 1a17.85 17.85 0 004.45 2.06 25.91 25.91 0 007.2 1.12 89 89 0 009-.36c6.37-.47 12.13-1.06 16.29-1.53l4.93-.56a12.65 12.65 0 011.77-.12z" fill="#263238"/><path d="M624 386.59a26.87 26.87 0 01-26.11 32l-75.75-.84 2-24.53 64.86-9.74" fill="#b78876"/><path d="M528.78 394.29c-.35.11-4.72-1.85-8.64-3.66a28.24 28.24 0 00-13.3-2.58l-18.06.92s1.11 3 3 4 13.22 1.32 13.22 1.32l-.58.59a13 13 0 01-9 3.94h-1.73a16.78 16.78 0 01-3.77-.74l-4.45-1.8c-1.35-.6-2.77-.51-3.36.85s-.14 2.92 3.54 4.77c2.05 1 9.67 3.67 9.67 3.67a17.94 17.94 0 00.45 3.22c.33 1.11 3.32 2.22 3.32 2.22a39.84 39.84 0 002.66 4.76c.35.4 3.06 1.25 5.95 2.06a25.69 25.69 0 0014.23-.11l6.88-2.06v-21" fill="#b78876"/><path d="M504.08 408a20.47 20.47 0 01-9.11-2.4c0-.12 2 .64 4.53 1.29s4.59.96 4.58 1.11zm-.64 4.21a4.62 4.62 0 01-2.54-.19 4.69 4.69 0 01-2.28-1.12 15.08 15.08 0 012.4.69 16.26 16.26 0 012.42.62zm3.3-19.55a7.68 7.68 0 01-1.39 1.49 22.26 22.26 0 01-3.94 3 15.52 15.52 0 01-4.61 1.78 6.65 6.65 0 01-2 .22 26.33 26.33 0 006.42-2.39 30.7 30.7 0 003.95-2.83 11.38 11.38 0 011.57-1.27z" fill="#aa6550"/><path d="M530.62 391l-1.84 27.74h71.35a26.65 26.65 0 0013.75-3.81 26.68 26.68 0 0012.44-28 82.08 82.08 0 00-4.6-15.39l-35.88 5.91 1.15 4.46z" fill="#7e57c2"/><path d="M603.52 379.58a5.82 5.82 0 01-.72.16l-2.09.38-7.71 1.28-25.36 4-25.39 3.89-7.7 1.12-2.1.28a6.5 6.5 0 01-.74.06 3.54 3.54 0 01.73-.17l2.08-.37 7.68-1.29 25.36-4L593 381l7.7-1.12 2.1-.28a3.4 3.4 0 01.72-.02z" fill="#263238"/><path d="M567 418.76c-.13 0 .43-2 .5-5.27a22.76 22.76 0 00-.11-2.66 25 25 0 00-.44-3 27.93 27.93 0 00-2.32-6.58 30.1 30.1 0 00-3.9-5.8l-1-1.17c-.34-.38-.71-.71-1.05-1.05-.67-.69-1.38-1.24-2-1.77-2.55-2-4.36-3-4.3-3.09a7.73 7.73 0 011.27.65 13.44 13.44 0 011.44.87c.53.38 1.19.75 1.82 1.29a23 23 0 012.06 1.74c.35.34.74.66 1.09 1l1.09 1.18a29.33 29.33 0 014 5.87 27.7 27.7 0 012.32 6.72 22.39 22.39 0 01.4 3.09 19 19 0 010 2.7 17.58 17.58 0 01-.2 2.23 11.09 11.09 0 01-.29 1.65 8.43 8.43 0 01-.38 1.4zm43.44-2.09a15 15 0 01-3.31-.39 17.13 17.13 0 01-3.7-1.31 14.69 14.69 0 01-4.17-3.1 13.28 13.28 0 01-3.07-5.5 14.79 14.79 0 01-.53-3.5 13.6 13.6 0 01.3-3.73 11 11 0 011.48-3.67 8.3 8.3 0 013-2.86 7.44 7.44 0 014.19-1 5.59 5.59 0 013.91 2 5.48 5.48 0 011.32 4.21 5 5 0 01-2.46 3.52 11.72 11.72 0 01-7.88 1.08 16.45 16.45 0 01-13.91-15.76 11.82 11.82 0 01.28-3.32 27.82 27.82 0 00-.08 3.31 17 17 0 002.85 8.42 16.32 16.32 0 0010.92 6.93 11.29 11.29 0 007.54-1 4.5 4.5 0 002.22-3.15 5.22 5.22 0 00-4.77-5.65 6.91 6.91 0 00-3.89.89 9 9 0 00-4.25 6.18 13.12 13.12 0 00-.31 3.62 14.37 14.37 0 00.49 3.39 12.85 12.85 0 002.92 5.37 14.59 14.59 0 004 3.09 17.57 17.57 0 003.62 1.37c2.1.47 3.3.49 3.29.56z" fill="#fafafa"/><path d="M327.41 114.47H148.72a39.38 39.38 0 00-39.38 39.38v63.68H70.79l38.55 38.55v43.29a39.38 39.38 0 0039.38 39.38h178.69a39.38 39.38 0 0039.38-39.38V153.85a39.38 39.38 0 00-39.38-39.38z" fill="#7e57c2"/><path d="M254.41 121.2c-1.13 2.93.81 6.12 3 8.38s4.81 4.4 5.5 7.46c.57 2.57-.38 5.24-.15 7.86s1.68 5.09 2.5 7.65c1.49 4.64.89 9.71-.44 14.4a26.47 26.47 0 01-5.36 10.61 14.14 14.14 0 01-10.48 5 4.14 4.14 0 01-3.1-1.12 5 5 0 01-.89-2.75 268.13 268.13 0 010-60.6m7.31 68c8.7-.38 16.74 7.95 16.05 16.63 8.81 2.15 15 11.84 13.31 20.74-.57 2.94-1.88 5.74-2.06 8.72-.2 3.26 1 6.43 1.59 9.63a30.34 30.34 0 01-1.74 17.36c-1.37 3.31-3.93 6.73-7.51 6.83a7.4 7.4 0 01-6-3.53 18.61 18.61 0 01-2.42-6.83c-1.55-7.82-2-15.85-4.16-23.52S253 216.89 246.07 213c-3.83-2.16-8.43-3.18-11.48-6.35a12.47 12.47 0 01-2.25-12.9 16.44 16.44 0 019.8-9.15" fill="#263238"/><path d="M192.08 128.37c-.1-3.72 3.33-6.59 6.79-8s7.31-1.88 10.39-4c2.74-1.84 4.57-4.71 6.88-7a22.89 22.89 0 0138.5 10.5c1.33 5.29.42 11.55-3.75 15.07-4.84 4.08-12 3.17-18.23 1.9s-13.23-2.52-18.41 1.13c-3.12 2.19-4.92 5.77-6.83 9.08s-4.3 6.68-7.91 7.93-8.52-.91-8.66-4.72" fill="#263238"/><path d="M206.74 129.13a6.22 6.22 0 00-5.55 6.32l3.71 84c.16 9.92 14.66 15.49 25.28 15.24 10.73-.25 11.07-5.51 11.21-14.95.22-15.76.2-21.68.21-21.59s13.55-2.28 16.32-20c1.37-8.79.9-23.21.13-35-.69-10.61-7.75-23.61-18.32-22.47z" fill="#ffbe9d"/><path d="M255 154.29a2.27 2.27 0 01-2.18 2.29 2.16 2.16 0 01-2.34-2 2.26 2.26 0 012.18-2.29 2.16 2.16 0 012.34 2zm-.06-3.6c-.28.3-2-1-4.44-1s-4.23 1.24-4.5.94c-.13-.13.16-.67.94-1.24a6.19 6.19 0 013.59-1.11 6 6 0 013.54 1.13c.75.59 1.01 1.15.87 1.28zm-23.39 3.6a2.27 2.27 0 01-2.18 2.29 2.16 2.16 0 01-2.34-2 2.26 2.26 0 012.18-2.29 2.16 2.16 0 012.34 2zm-.55-3.09c-.28.3-2-1-4.44-1s-4.23 1.24-4.49.94c-.13-.13.15-.67.93-1.24a6.22 6.22 0 013.59-1.12 6 6 0 013.54 1.14c.7.61.96 1.15.87 1.28zm8.85 18.08c0-.14 1.5-.4 4-.72.62-.07 1.21-.2 1.32-.62a3.27 3.27 0 00-.42-1.85l-1.86-4.74c-2.57-6.75-4.44-12.3-4.16-12.4s2.58 5.29 5.15 12l1.78 4.77a3.67 3.67 0 01.33 2.44 1.58 1.58 0 01-1 .92 3.9 3.9 0 01-1 .14c-2.6.18-4.13.2-4.14.06z" fill="#263238"/><path d="M241.6 198.16a45 45 0 01-23.7-6.27s5.77 12.14 23.47 10.44zm-2.77-23a4.39 4.39 0 00-4-1.62 4 4 0 00-2.77 1.49 2.54 2.54 0 00-.18 2.91 2.93 2.93 0 003.2.8 9.14 9.14 0 003.11-1.87 2.66 2.66 0 00.7-.72.81.81 0 000-.91" fill="#eb996e"/><path d="M232.67 171c.4 0 .41 2.63 2.68 4.5s5.09 1.58 5.11 2c0 .17-.63.52-1.82.55a6.59 6.59 0 01-4.27-1.47 5.75 5.75 0 01-2.07-3.78c-.11-1.17.19-1.8.37-1.8zm-.67-24.08c-.24.67-2.68.36-5.54.71s-5.18 1.14-5.56.54c-.17-.28.23-.91 1.16-1.55a9.72 9.72 0 018.46-1c1.09.47 1.62.99 1.48 1.3zm22-3.29c-.43.55-2.11 0-4.14 0s-3.73.38-4.12-.2c-.18-.28.09-.83.84-1.36a6 6 0 016.65.19c.77.53.98 1.1.77 1.37z" fill="#263238"/><path d="M194.39 187.31A15.69 15.69 0 00213.07 170c-.55-4.35-2.89-8.76-1.38-12.88 2-5.43 9.61-7.1 11.63-12.53 1.17-3.15.12-6.84 1.45-9.93 1.25-2.9 4.31-4.57 7.29-5.65s6.16-1.82 8.66-3.76 4.05-5.6 2.44-8.33a167.5 167.5 0 00-38.64 9.39c-2.89 1.08-5.92 2.38-7.63 4.94-1.8 2.72-1.71 6.22-1.56 9.48.74 15.88-1.68 30.75-.94 46.63" fill="#263238"/><path d="M190.18 182.33a1 1 0 01-.29-.09 3.67 3.67 0 01-.81-.4 5.87 5.87 0 01-2.2-2.6 8.72 8.72 0 01-.58-5.37 17.09 17.09 0 013.21-6.43c1.55-2.16 3.52-4.35 4.86-7.14a11 11 0 001.17-4.56 15.17 15.17 0 00-1-4.92 14.94 14.94 0 01-1.05-5.34 12 12 0 015.75-9.66 13.76 13.76 0 015.83-1.66 24.53 24.53 0 005.83-1 7.61 7.61 0 004.1-3.69 28.28 28.28 0 001.94-5.22 28.25 28.25 0 012-5 18.91 18.91 0 016.63-7.45 14.34 14.34 0 018.39-2.18 10.79 10.79 0 016.61 2.71 10.44 10.44 0 012.95 4.54 8.41 8.41 0 01.41 3.4 5.13 5.13 0 01-.2 1.18s.07-.41.1-1.19a8.85 8.85 0 00-.5-3.33 10.38 10.38 0 00-9.39-6.94 14 14 0 00-8.14 2.18 18.48 18.48 0 00-6.44 7.3 27.54 27.54 0 00-1.94 5 28.5 28.5 0 01-2 5.31 9.09 9.09 0 01-1.79 2.36 7.59 7.59 0 01-2.58 1.57 24.61 24.61 0 01-6 1.06 13.2 13.2 0 00-5.62 1.59 11.48 11.48 0 00-5.51 9.22 14.68 14.68 0 001 5.18 15.31 15.31 0 011.05 5.08 11.48 11.48 0 01-1.24 4.74c-1.4 2.86-3.39 5-4.95 7.17a16.76 16.76 0 00-3.22 6.27 8.48 8.48 0 00.47 5.22 6 6 0 002.08 2.61c.67.34 1.08.44 1.07.48z" fill="#455a64"/><path d="M241.57 105.22a1.64 1.64 0 01.69.21 7.06 7.06 0 011.67 1 8.57 8.57 0 011.75 11.71 7.6 7.6 0 01-1.3 1.45c-.36.3-.58.43-.6.4a24.86 24.86 0 001.59-2 8.63 8.63 0 00-1.67-11.23 22.76 22.76 0 00-2.13-1.54zm39.18 121.37a14.88 14.88 0 00.51-1.88 8.66 8.66 0 00-.87-5.09 11.81 11.81 0 00-5.58-5.2 23.23 23.23 0 00-4.35-1.55c-1.56-.4-3.21-.73-4.86-1.27a11 11 0 01-4.47-2.44 7.46 7.46 0 01-2.11-4.24c-.27-1.49-.36-2.9-.69-4.16a8.16 8.16 0 00-1.61-3.18 9.19 9.19 0 00-4.28-2.91c-1.19-.36-1.9-.36-1.9-.42a2.58 2.58 0 01.51 0 8.32 8.32 0 011.45.23 9.07 9.07 0 014.5 2.87 8.45 8.45 0 011.75 3.31c.36 1.31.47 2.74.75 4.18a6.92 6.92 0 002 4 10.64 10.64 0 004.27 2.31c1.61.52 3.26.86 4.83 1.27A22.34 22.34 0 01275 214a12 12 0 015.7 5.47 8.62 8.62 0 01.74 5.29 6.26 6.26 0 01-.45 1.39 2.42 2.42 0 01-.24.44z" fill="#455a64"/><path d="M203.83 195.27c-9-2.4-16.7-11.17-19.84-19.9s-3.14-18.26-2.33-27.5c.58-6.69 1.76-13.77 6.2-18.81 6.7-7.6 14-11.48 24.08-11.16" fill="#263238"/><path d="M256.13 214.77l-8.35-2.1a4.75 4.75 0 001.66-5.82 7.65 7.65 0 00-6.38-4.73l-38.06-4.3a3 3 0 00-3.19 1.88q-2.53 6.44-.17 10.6h-.18l-7.34 1.46-12.44 109.74 81.48-3.81z" fill="#f5f5f5"/><path d="M244.15 213.09a8.61 8.61 0 01-1.53.3c-1 .16-2.43.33-4.21.51a98.36 98.36 0 01-27.89-1.39c-1.76-.35-3.17-.67-4.14-.93a8.13 8.13 0 01-1.49-.44 8.75 8.75 0 011.53.25c1 .19 2.41.46 4.17.76a115.46 115.46 0 0027.79 1.38c1.78-.12 3.22-.25 4.22-.35a9.89 9.89 0 011.55-.09z" fill="#263238"/><path d="M207.32 230.53a29.92 29.92 0 012.85-4.74 29.58 29.58 0 013.29-4.45 29.56 29.56 0 01-2.86 4.74 29.16 29.16 0 01-3.28 4.45zm26.26 1.86a57.29 57.29 0 01-6.83-8.5 29.09 29.09 0 013.62 4.09 28.19 28.19 0 013.21 4.41zm-12.2 13.95a30.79 30.79 0 01-1.23-5.46 28.81 28.81 0 01-.71-5.55 30.52 30.52 0 011.23 5.46 30.74 30.74 0 01.71 5.55zm20.05.86a44 44 0 01-4.62 4.92 43.13 43.13 0 01-5 4.55 43.91 43.91 0 014.62-4.92 45.49 45.49 0 015-4.55zm-26.89 18.7a23.19 23.19 0 01-8.67-9.19c.14-.09 1.67 2.31 4.08 4.84s4.69 4.22 4.59 4.35zm8.64 14.44c0 .15-2.28.88-4.92 2.29s-4.57 2.89-4.67 2.76a14.55 14.55 0 014.43-3.23 14.24 14.24 0 015.16-1.82zm14.05.93a9.83 9.83 0 01-1.59-1.71c-.92-1.1-2.15-2.67-3.43-4.46s-2.36-3.46-3.11-4.7a9.94 9.94 0 01-1.1-2.06 11.49 11.49 0 011.41 1.86l3.23 4.6 3.29 4.54a11 11 0 011.3 1.93zm1.41 12.32a28.58 28.58 0 01-6 1.4 29 29 0 01-6.15.61 48.42 48.42 0 016.07-1.12 51.76 51.76 0 016.08-.89zm-22.75-82.05c-.07 0 .41-.6.82-1.66a8.82 8.82 0 00.44-4.34 17.7 17.7 0 00-1.29-4.27 8.07 8.07 0 01-.68-1.76 5.92 5.92 0 011 1.61 13.86 13.86 0 011.47 4.34 8.13 8.13 0 01-.61 4.57 3.23 3.23 0 01-1.15 1.51zm15.22-8.22a9.11 9.11 0 011.61 6.88c-.15 0-.17-1.59-.62-3.48s-1.1-3.32-.99-3.4z" fill="#e0e0e0"/><path d="M299.76 281.51l37.9-66.57 4.57-11.55s11.82-25.4 12.64-28c.95-3 2.62-3.24 3.7-2.82 1.68.67 2.22 3.17 1.48 5.76-.26.89-4.85 14.85-4.85 14.85a33.53 33.53 0 013.92-2.91c2.91-2 8.24-1.9 13.18-.14s6.16 2.69 5.57 4.63a2.58 2.58 0 01-1.59 1.57 5 5 0 01-3.65.08c-7.94-2.7-11.46.88-11.46.88l-.59 1.51s6-1.91 9.36.79a5 5 0 011.24 1.44 6.57 6.57 0 012.43 11.06 2.73 2.73 0 01-3 .76 3.35 3.35 0 01-1.13-1.31 5.78 5.78 0 00-.55-.75l-2.26 4s-5.57 8.7-7.57 12.77L333 297.09a18.4 18.4 0 01-24 10.65 18.41 18.41 0 01-9.24-26.23z" fill="#ffbe9d"/><path d="M340.27 214.71c1.34.88 3.19.28 4.39-.76s2-2.47 3.16-3.6c3.37-3.37 9-3.69 12.23-7.22.45-.49.85-1.24.46-1.78s-1.11-.44-1.71-.32l-15.51 3.07" fill="#ffbe9d"/><path d="M343.29 204.1a6.65 6.65 0 011.64-.5c1.07-.27 2.63-.62 4.55-1l6.76-1.43 2-.41a3.16 3.16 0 012.37.08 1.34 1.34 0 01.5 1.41 2.65 2.65 0 01-.6 1.14 10.22 10.22 0 01-1.75 1.54c-2.58 1.79-5.41 2.52-7.67 3.71a11.45 11.45 0 00-2.94 2c-.8.77-1.43 1.65-2.09 2.4a5.58 5.58 0 01-4.11 2.31c-1.19 0-1.68-.59-1.64-.6a4.65 4.65 0 001.62.25 5.41 5.41 0 003.64-2.37 32.2 32.2 0 012.05-2.52 12.09 12.09 0 013.09-2.22c2.33-1.26 5.15-2 7.53-3.7a10.14 10.14 0 001.58-1.39c.44-.49.59-1.08.28-1.25s-1-.09-1.69.05l-2 .37-6.8 1.25c-1.94.34-3.51.6-4.6.76a5.52 5.52 0 01-1.72.12zm17.08-5.28a6.45 6.45 0 011.78-2.4 5 5 0 013-1 12.92 12.92 0 014 .66 20.33 20.33 0 004.06.92 6.54 6.54 0 003.4-.52 2.59 2.59 0 001.45-1.82 1.62 1.62 0 000-.85c-.06 0-.06.3-.21.8a2.43 2.43 0 01-1.4 1.5 6.66 6.66 0 01-3.19.36 22 22 0 01-3.94-1 12.78 12.78 0 00-4.14-.64 5.28 5.28 0 00-3.23 1.2 4.58 4.58 0 00-1.35 1.89c-.25.59-.27.89-.23.9zm-.05-21.49a17 17 0 00-.94 2.77c-.59 1.92-1.29 4.2-2.07 6.72s-1.55 4.78-2.17 6.69a15.93 15.93 0 00-.83 2.8 14.22 14.22 0 001.22-2.66c.66-1.68 1.5-4 2.34-6.65s1.49-5 1.91-6.79a13.93 13.93 0 00.54-2.88zm2.19 25.67a3.23 3.23 0 00.92 0 2.71 2.71 0 012.18.58 1.47 1.47 0 01.35 1.4 7.54 7.54 0 01-.71 1.76 3.28 3.28 0 00-.37 2.3 2.81 2.81 0 001.78 1.79 3.16 3.16 0 002.49-.25 3.89 3.89 0 001.65-1.61 12.87 12.87 0 001.1-3.6 7.37 7.37 0 000-2.53 1.64 1.64 0 00-.35-.86c-.05 0 .08.32.13.89a8.83 8.83 0 01-.21 2.43 13.9 13.9 0 01-1.16 3.41 3.13 3.13 0 01-3.48 1.57 2.22 2.22 0 01-1.42-1.4 2.76 2.76 0 01.31-1.91 8.27 8.27 0 00.7-1.91 1.9 1.9 0 00-.55-1.77 2.85 2.85 0 00-2.5-.52 2.76 2.76 0 00-.86.23z" fill="#eb996e"/><path d="M369.05 210s-.19.26-.17.82a2.53 2.53 0 001.16 1.95 3.38 3.38 0 003.37 0 5.51 5.51 0 002.54-3.24 6.66 6.66 0 000-4.12 6.36 6.36 0 00-1.85-2.8 6 6 0 00-1.93-1.16 1.83 1.83 0 00-.81-.18 10.82 10.82 0 012.46 1.64 6.27 6.27 0 011.58 6.44 5.15 5.15 0 01-2.25 2.95 3 3 0 01-2.89.08 2.43 2.43 0 01-1.16-1.63c-.1-.44 0-.75-.05-.75zm-12.62 6.28a2.39 2.39 0 00-1.34-.41 5.5 5.5 0 00-3.48.83l.43.29a16.1 16.1 0 00.28-2c.35-3.86-.88-6.84-1-6.76a31.19 31.19 0 01.43 6.71 17.7 17.7 0 01-.25 1.91l-.12.65.55-.37a5.78 5.78 0 013.15-.94c.83.02 1.33.16 1.35.09zm7.89-23.72c-.16 0 .06 1.2 1.12 2.12s2.25 1 2.25.83-.95-.46-1.86-1.27-1.35-1.74-1.51-1.68z" fill="#eb996e"/><path d="M246 336.75l39.65.39-6.65-28.77 2.23 5.43a27.31 27.31 0 0025.27 16.95c12.54 0 21.21-9.33 26.51-20.69 12.4-26.56 24.35-69.33 24.35-69.33l-24.17-21.24c-17.5 33.1-33.94 61.84-33.94 61.84s-4.75-14.43-8.42-27.31-3.64-19.64-9.27-26.06c-8.67-9.88-21-12.33-32.48-15.29l-.43 53.44-2.65 70.64" fill="#7e57c2"/><path d="M200.63 297l72.2 14 3.51 27.74h-110.7a21.8 21.8 0 01-22-23.52c1.59-20.22 3.32-45.12 4.64-55.65 1-8.21 4.3-16.7 8.17-24 5.59-10.52 24.22-24 40.55-24.7l3.09 68.77" fill="#7e57c2"/><g opacity=".4"><path d="M246 336.75l39.65.39-6.65-28.77 2.23 5.43a27.31 27.31 0 0025.27 16.95c12.54 0 21.21-9.33 26.51-20.69 12.4-26.56 24.35-69.33 24.35-69.33l-24.17-21.24c-17.5 33.1-33.94 61.84-33.94 61.84s-4.75-14.43-8.42-27.31-3.64-19.64-9.27-26.06c-8.67-9.88-21-12.33-32.48-15.29l-.43 53.44-2.65 70.64"/><path d="M200.63 297l65.12 11.94a6.82 6.82 0 015.43 5.29l5.16 24.57h-110.7a21.8 21.8 0 01-22-23.52c1.59-20.22 3.32-45.12 4.64-55.65 1-8.21 4.3-16.7 8.17-24 5.59-10.52 24.22-24 40.55-24.7l3.09 68.77"/></g><path d="M186.88 294.94a2.82 2.82 0 010-.66v-8.89c0-5.87-.11-14-.56-22.93-.23-4.48-.52-8.74-.83-12.6a51.69 51.69 0 00-1.45-10.16 14.55 14.55 0 00-3.18-6A22.68 22.68 0 00179 232a7.74 7.74 0 012.05 1.53 14.1 14.1 0 013.39 6.07 50.16 50.16 0 011.56 10.26c.34 3.87.64 8.13.87 12.61.46 9 .51 17.09.41 23-.06 2.94-.14 5.32-.21 7l-.11 1.89a2.5 2.5 0 01-.08.58z" fill="#263238"/><path d="M271.43 313a11 11 0 00-2.63-2.13 16.62 16.62 0 00-3.69-1.47c-1.49-.43-3.24-.76-5.17-1.15-7.72-1.58-18.37-3.77-30.17-6s-22.54-4-30.31-5.24l-9.21-1.47-2.5-.42a5.43 5.43 0 01-.87-.18 5.16 5.16 0 01.88.08l2.52.32c2.18.29 5.34.73 9.23 1.31 7.79 1.16 18.54 2.88 30.35 5.09s22.46 4.45 30.15 6.11c1.93.42 3.68.78 5.18 1.24a15.93 15.93 0 013.71 1.58 8 8 0 012 1.6 4 4 0 01.42.51c.07.12.12.22.11.22z" fill="#263238"/><path d="M187.1 294.94c0 .09-1.33.4-3.39 1.24a30.07 30.07 0 00-3.5 1.72 31.32 31.32 0 00-3.89 2.74A30.6 30.6 0 00173 304a28.24 28.24 0 00-2.3 3.14c-1.18 1.89-1.72 3.17-1.81 3.13a3.75 3.75 0 01.31-.93 20.35 20.35 0 011.18-2.39 26.51 26.51 0 012.25-3.26 25.75 25.75 0 017.4-6.21 23.82 23.82 0 013.59-1.65 18.51 18.51 0 012.56-.75 3.33 3.33 0 01.92-.14zm93.23 17.28a4.3 4.3 0 01-.15-.69c-.08-.5-.19-1.16-.32-2-.28-1.73-.65-4.23-1.07-7.33-.84-6.19-1.86-14.77-2.72-24.27s-1.37-18.12-1.65-24.37c-.14-3.12-.22-5.65-.26-7.4v-2a3.75 3.75 0 010-.7 3 3 0 01.08.7l.13 2c.11 1.8.25 4.31.43 7.38.37 6.24.95 14.85 1.8 24.34s1.82 18.07 2.57 24.27c.37 3.06.68 5.55.9 7.35.09.83.17 1.49.23 2a2.85 2.85 0 01.03.72zm23.94-10.75s-.23-.22-.58-.66a19.19 19.19 0 01-1.33-2 26.35 26.35 0 01-3.55-15.16 16.84 16.84 0 01.32-2.37 3.33 3.33 0 01.22-.85c.09 0-.1 1.24-.17 3.24a29.82 29.82 0 003.5 15c.94 1.73 1.67 2.74 1.59 2.8z" fill="#263238"/><path d="M186.59 257.78s-.13.05-.37.08a9.33 9.33 0 01-1.09.11 16.51 16.51 0 01-4-.32 28.49 28.49 0 01-5.69-1.78c-2.07-.86-4.27-2-6.57-3.11a49.42 49.42 0 00-6.67-2.76 22.63 22.63 0 00-5.74-1.13 18.62 18.62 0 00-5.37.61 1.22 1.22 0 01.35-.16 7 7 0 011-.35 13.72 13.72 0 014-.46 21.81 21.81 0 015.88 1 45.66 45.66 0 016.74 2.78c2.31 1.14 4.49 2.26 6.53 3.13a30.57 30.57 0 005.58 1.86 24.87 24.87 0 005.42.5zm12.41-2.43a35.67 35.67 0 01-5.88 1.26 33.61 33.61 0 01-6 .75 35.67 35.67 0 015.88-1.26 33.52 33.52 0 016-.75zm-12.86 21.46a7.63 7.63 0 01-1.45.63c-.95.37-2.34.87-4.07 1.43a104.92 104.92 0 01-13.82 3.42c-2.74.48-5.37.83-7.77 1.07a31.53 31.53 0 01-6.42.17 11 11 0 01-4.16-1.19 6.6 6.6 0 01-1-.64 1.56 1.56 0 01-.31-.28s.48.31 1.39.74a11.47 11.47 0 004.11 1 33.07 33.07 0 006.33-.28c2.39-.27 5-.63 7.73-1.11a127.14 127.14 0 0013.8-3.25c1.74-.52 3.14-1 4.11-1.27a10.76 10.76 0 011.53-.44zm12.53 5.27a29.28 29.28 0 01-5.45.35 29 29 0 01-5.45-.17 29.28 29.28 0 015.45-.35 29 29 0 015.45.17zm-51.46 45.56a2 2 0 01.11-.54c.1-.4.24-.89.4-1.5l.3-1.08c.13-.39.3-.8.46-1.25a30.39 30.39 0 011.24-3l.81-1.71c.29-.6.66-1.18 1-1.8a44.15 44.15 0 012.46-3.81 45.57 45.57 0 0115.57-13.55 43.63 43.63 0 014.12-1.91c.67-.25 1.29-.54 1.92-.74l1.81-.57a28.38 28.38 0 013.16-.81c.47-.1.9-.21 1.3-.28l1.12-.15 1.54-.19a1.84 1.84 0 01.54 0 2.19 2.19 0 01-.53.13l-1.52.29-1.1.19-1.29.32c-.92.25-2 .46-3.11.88l-1.78.6c-.62.21-1.24.5-1.89.76a44.6 44.6 0 00-4.06 1.93 50.94 50.94 0 00-8.45 5.86 51.48 51.48 0 00-7 7.55c-.9 1.3-1.79 2.52-2.47 3.75-.35.61-.72 1.18-1 1.77l-.84 1.68c-.57 1.06-.92 2.08-1.3 3-.17.44-.35.85-.49 1.23l-.35 1.06-.49 1.47a2.12 2.12 0 01-.19.42zm50.15-30.72a18 18 0 00-4.1 5.16 24.86 24.86 0 00-2.3 6.79 70.44 70.44 0 00-1 8.79 63.13 63.13 0 01-1 8.85 24.48 24.48 0 01-2.51 6.85 15.07 15.07 0 01-3 3.85 8.47 8.47 0 01-1.05.83c-.25.17-.39.26-.4.24a17.56 17.56 0 004.18-5.1 24.92 24.92 0 002.36-6.76 65.07 65.07 0 001-8.79 64.92 64.92 0 011-8.86 24.4 24.4 0 012.44-6.86 15.5 15.5 0 013-3.9 10 10 0 011-.84 1.79 1.79 0 01.38-.25zm17.07 41.99c-.14 0 0-8.62.37-19.24s.75-19.23.89-19.23 0 8.62-.37 19.25-.75 19.23-.89 19.22zm27.14-1.48a6.6 6.6 0 01-.44-1.25 15.16 15.16 0 01-.41-1.5c-.13-.59-.31-1.26-.42-2a35.53 35.53 0 01-.53-5.34 37.51 37.51 0 012-12.95 36 36 0 012.11-4.94c.33-.69.7-1.27 1-1.79a13.25 13.25 0 01.84-1.31 5.93 5.93 0 01.79-1.06c.09.05-1 1.6-2.31 4.33a39.14 39.14 0 00-2 4.92 39.26 39.26 0 00-2 12.79 41.14 41.14 0 00.41 5.29c.5 2.98 1.06 4.78.96 4.81zm-46.09-110.52c0 .08-1.58-.61-4.18-1.45a47.47 47.47 0 00-21-1.86c-2.7.37-4.35.79-4.37.7a4.48 4.48 0 011.13-.37 29 29 0 013.18-.69 42.52 42.52 0 0121.18 1.87 32.43 32.43 0 013 1.23 4.89 4.89 0 011.06.57zm79 42.09a27.21 27.21 0 01-3.71-.06c-2.29-.09-5.45-.21-8.94-.29s-6.65-.13-8.94-.15a27.8 27.8 0 01-3.71-.13 4.48 4.48 0 011-.12c.64 0 1.57-.09 2.72-.12 2.29-.07 5.45-.09 8.95 0s6.66.27 9 .46c1.14.09 2.06.17 2.7.25a4.42 4.42 0 01.93.16zm19.74-3.79c0 .09-1.25.52-3.2 1.48a31.3 31.3 0 00-12.5 11.14c-1.18 1.83-1.75 3.05-1.83 3a2.87 2.87 0 01.32-.9 20.38 20.38 0 011.2-2.31 27.77 27.77 0 015.46-6.61 28.27 28.27 0 017.19-4.67 21.27 21.27 0 012.43-.92 3.66 3.66 0 01.93-.21zm-9.74-32.05a14.89 14.89 0 00-5.08.71 34.14 34.14 0 00-5.13 2.28 41.58 41.58 0 01-6.34 2.85 25.83 25.83 0 01-12.53.81 22.49 22.49 0 01-3.69-1 6.64 6.64 0 01-1.29-.56c0-.1 1.88.69 5 1.2a26.86 26.86 0 0012.31-.95 45.23 45.23 0 006.29-2.78 31.64 31.64 0 015.23-2.2 11.78 11.78 0 013.8-.55 7.13 7.13 0 011 .1c.31.04.44.07.43.09zm-4.99 67.02a5.22 5.22 0 01-1.16.55c-.38.16-.85.35-1.41.53s-1.19.42-1.9.6a39 39 0 01-5.1 1.06 41.39 41.39 0 01-6.36.33 42.78 42.78 0 01-6.33-.71 38.1 38.1 0 01-5-1.37c-.71-.22-1.32-.49-1.86-.71s-1-.43-1.38-.61a6 6 0 01-1.13-.62c0-.09 1.69.71 4.49 1.59a41.74 41.74 0 005 1.24 41.22 41.22 0 0012.54.38 42 42 0 005.06-.94c2.82-.72 4.51-1.41 4.54-1.32zm22.98 29.6a2.05 2.05 0 01-.39-.32c-.23-.23-.61-.54-1-1a23.81 23.81 0 01-3.16-4.24 34.55 34.55 0 01-4.46-16.75 67.41 67.41 0 012.27-17.27c.54-2.16 1-3.9 1.37-5.09.17-.55.31-1 .42-1.37s.16-.48.18-.47a1.67 1.67 0 01-.08.49c-.08.38-.19.84-.32 1.4-.3 1.29-.71 3-1.21 5.13a72.31 72.31 0 00-2.09 17.16 35.41 35.41 0 004.21 16.55 26.64 26.64 0 003 4.29c.79.96 1.29 1.45 1.26 1.49zm36.39-33.96a19.73 19.73 0 00-5.29-3 42.58 42.58 0 00-6.4-1.67 71 71 0 01-8-1.83 32.84 32.84 0 01-12.67-7.62 30.2 30.2 0 01-3-3.37c-.33-.42-.55-.77-.71-1s-.23-.36-.21-.37a12.63 12.63 0 011.08 1.24 34.75 34.75 0 003.09 3.23 33.93 33.93 0 0012.57 7.39 76.83 76.83 0 007.91 1.86 41 41 0 016.44 1.79 15.31 15.31 0 013.94 2.2 7.91 7.91 0 01.92.81c.25.22.35.33.33.34zm11.44-33.37a7.47 7.47 0 01-1.07-.93c-.33-.31-.73-.69-1.23-1.11s-1-.92-1.68-1.4a45.88 45.88 0 00-4.64-3.29 46.57 46.57 0 00-12.76-5.46 48.05 48.05 0 00-5.59-1.09c-.8-.13-1.53-.18-2.17-.24s-1.2-.11-1.65-.13a8.09 8.09 0 01-1.41-.13 6.81 6.81 0 011.41-.07 16.67 16.67 0 011.67 0c.64 0 1.39.05 2.2.16a43.35 43.35 0 015.65 1 48.54 48.54 0 016.68 2.24 47.47 47.47 0 016.22 3.28 43 43 0 014.63 3.41c.64.51 1.16 1 1.64 1.48a16 16 0 011.17 1.18 6.72 6.72 0 01.93 1.1zm-87.5-45.9a7.46 7.46 0 01-1.9.91 34.42 34.42 0 01-4.85 1.5 34.85 34.85 0 01-5 .8 7 7 0 01-2.1 0c0-.16 3.17-.42 7-1.33s6.79-2.03 6.85-1.88z" fill="#fafafa"/><path d="M298.27 357.39a2.78 2.78 0 01-3.06 3.53 2.77 2.77 0 01-2.28-2l-.85-3.14h.13a2.91 2.91 0 01-3.25 3.43c-1.31 0-2.44-1.91-2.82-2.92a5.44 5.44 0 01-5.08-2.44l-5.87-9.16-10.87-7.95 6.58-23.49 23.39 15.14c.92.72 1.06 1 2.52 2.37l15.1 13.89c-1.71 1-3.16.95-5.54 0s-12.8-8-12.8-8l4.7 20.65" fill="#ffbe9d"/><path d="M278.26 338.07s.27.12.69.41l.78.54a4.72 4.72 0 011 .84 4.35 4.35 0 01.8 1.35c.18.53.37 1.07.57 1.64l1.28 3.76c.89 2.68 1.67 5.1 2.21 6.87a16.9 16.9 0 01.77 2.89 17.1 17.1 0 01-1.12-2.78c-.63-1.74-1.47-4.14-2.36-6.81-.43-1.33-.85-2.6-1.24-3.77-.18-.58-.35-1.13-.52-1.65a4.25 4.25 0 00-.67-1.27 5.19 5.19 0 00-.86-.84l-.72-.61c-.43-.34-.63-.54-.61-.57zm14.07 18.25a4.48 4.48 0 01-.33-1l-.75-2.68c-.64-2.26-1.49-5.39-2.58-8.8s-2.23-6.45-3.6-8.33a7.23 7.23 0 00-1.91-1.91c-.55-.34-.9-.44-.89-.5a.67.67 0 01.27.05 3.57 3.57 0 01.72.27 6.57 6.57 0 012.11 1.87c1.49 1.9 2.69 5 3.79 8.39s1.9 6.58 2.44 8.87c.27 1.14.47 2.07.6 2.72a3.52 3.52 0 01.13 1.05zm6.04 1.42a4.46 4.46 0 01-.41-1.05c-.25-.8-.56-1.77-.93-2.92-.76-2.47-1.77-5.89-2.86-9.67s-2-7.1-2.75-9.7a4.66 4.66 0 00-1.6-2.44 6.08 6.08 0 00-1-.52.64.64 0 01.3 0 2.46 2.46 0 01.79.33 4.7 4.7 0 011.83 2.49c.82 2.47 1.79 5.89 2.9 9.67s2.05 7.23 2.72 9.72c.3 1.16.56 2.15.76 3a5.35 5.35 0 01.25 1.09z" fill="#eb996e"/><g fill="#455a64"><path d="M440.47 140.89a3.5 3.5 0 103.5-3.5 3.5 3.5 0 00-3.5 3.5z"/><circle cx="429.96" cy="140.89" r="3.5"/><path d="M412.49 139.14a3.5 3.5 0 104.78-1.28 3.49 3.49 0 00-4.78 1.28z"/><path d="M429.74 100a4.67 4.67 0 00-.7 0l-2.08.06c-.46 0-1 0-1.54.07l-1.83.26-2.14.31-2.4.59a38.67 38.67 0 00-11.59 5 41 41 0 00-18.8 30.76 43.57 43.57 0 00-.11 5.61c.07.94.05 1.91.19 2.86s.29 1.92.43 2.89a41.14 41.14 0 003.9 11.41 43.89 43.89 0 007.45 10.26 43 43 0 0010.74 7.71 39 39 0 0013.09 4 26.93 26.93 0 003.49.29 31.9 31.9 0 003.53.07 42.34 42.34 0 007.06-.89 41.39 41.39 0 0014.07-5.93l-.42.05 14.33 5.75.85.34-.24-.88-4.22-15.32-.07.37a41.07 41.07 0 007.65-17.5 37.44 37.44 0 00.56-9 30.41 30.41 0 00-.41-4.31q-.16-1.06-.33-2.1c-.12-.69-.33-1.36-.5-2a41 41 0 00-16-23.31 39.27 39.27 0 00-9.51-5l-2.15-.77-2-.52-1.86-.46c-.6-.11-1.18-.17-1.72-.26-1.08-.13-2-.32-2.87-.36l-2.1-.07h-1.29a3 3 0 00-.44 0 1.29 1.29 0 00.44.06l1.28.11 2.09.14c.83.06 1.77.27 2.85.43A40.78 40.78 0 01469 131c.15.66.36 1.32.48 2s.2 1.36.31 2.06a29.3 29.3 0 01.38 4.23 37 37 0 01-.58 8.79 40.51 40.51 0 01-7.59 17.1l-.13.17.06.21q2 7.42 4.18 15.33l.61-.54-14.33-5.77-.22-.09-.21.13a40.21 40.21 0 01-20.66 6.66 33 33 0 01-3.45-.06 25.71 25.71 0 01-3.41-.29 38.21 38.21 0 01-12.8-3.91 42.49 42.49 0 01-10.52-7.53 43.12 43.12 0 01-7.32-10 40.6 40.6 0 01-3.8-11.19c-.15-1-.3-1.89-.44-2.83s-.12-1.88-.19-2.81a41.92 41.92 0 01.08-5.5 40.49 40.49 0 0118.31-30.39 39 39 0 0111.41-5.14l2.36-.63 2.12-.35 1.82-.3c.56-.06 1.07-.08 1.52-.11l2.07-.15a3.27 3.27 0 00.68-.09z"/></g></svg>