<svg xmlns="http://www.w3.org/2000/svg" viewBox="0 0 500 500"><path fill="#ebebeb" d="M0 382.4h500v.25H0zm410.77 9.52h33.12v.25h-33.12zm-279.3 3.39h49.86v.25h-49.86zm248.77 5.9h29.53v.25h-29.53zm-327.78-1.68h21.6v.25h-21.6zm30.5 0h38.37v.25H82.96zm154.58-10.32h93.68v.25h-93.68zM237 337.8H43.91a5.71 5.71 0 01-5.7-5.71V60.66a5.71 5.71 0 015.7-5.66H237a5.71 5.71 0 015.71 5.71v271.38a5.71 5.71 0 01-5.71 5.71zM43.91 55.2a5.46 5.46 0 00-5.45 5.46v271.43a5.46 5.46 0 005.45 5.46H237a5.47 5.47 0 005.46-5.46V60.66A5.47 5.47 0 00237 55.2zm409.4 282.6h-193.1a5.72 5.72 0 01-5.71-5.71V60.66a5.72 5.72 0 015.71-5.66h193.1a5.71 5.71 0 015.69 5.66v271.43a5.71 5.71 0 01-5.69 5.71zM260.21 55.2a5.47 5.47 0 00-5.46 5.46v271.43a5.47 5.47 0 005.46 5.46h193.1a5.47 5.47 0 005.46-5.46V60.66a5.47 5.47 0 00-5.46-5.46z"/><path fill="#e6e6e6" d="M379.92 214.65H108.71V82.19h271.21z"/><path fill="#f0f0f0" d="M377.55 214.65H103.63V82.19h273.92z"/><path fill="#e6e6e6" d="M379.92 224.09H108.71v-9.44h271.21z"/><path fill="#f0f0f0" d="M369.08 224.09H95.16v-9.44h273.92z"/><path fill="#fafafa" d="M370.44 89.31v118.24h-259.7V89.31z"/><path fill="#fff" d="M182.17 207.55L170.79 89.31h-19.7l11.38 118.24h19.7zm151.65 0L322.43 89.31h-19.7l11.39 118.24h19.7z"/><path d="M367.15 167.47a.55.55 0 00.54-.55v-73a.55.55 0 10-1.09 0v73a.55.55 0 00.55.55z" fill="#f0f0f0"/><path fill="#fff" d="M158.24 207.55L146.85 89.31h-7.68l11.39 118.24h7.68z"/><path fill="#e6e6e6" d="M111.64 89.31v118.24h-.9V89.31z"/><path fill="#e0e0e0" opacity=".5" d="M101.95 102.2h271.21l.65-10.13H102.6l-.65 10.13zm0 16.65h271.21l.65-10.13H102.6l-.65 10.13zm0 16.65h271.21l.65-10.13H102.6l-.65 10.13zm0 16.65h271.21l.65-10.13H102.6l-.65 10.13zm0 16.65h271.21l.65-10.13H102.6l-.65 10.13zm0 16.65h271.21l.65-10.13H102.6l-.65 10.13z"/><path fill="#e6e6e6" d="M281.7 382.4h-17.06V268.36h17.06z"/><path fill="#f0f0f0" d="M269.12 382.4h-4.48v-15.53h9.19l-4.71 15.53z"/><path fill="#e6e6e6" d="M439.03 382.4h-17.06V268.36h17.06z"/><path fill="#f0f0f0" d="M425.87 372.87H264.63V268.36h161.24z"/><path fill="#e6e6e6" d="M422.39 301.64H268.11v-28.66h154.28z"/><path d="M295 281.89h97.5c4.38 0 8.56-3.53 11.57-9.78H283.43c3.01 6.25 7.19 9.78 11.57 9.78zM421.39 382.4h4.49v-15.53h-9.19l4.7 15.53z" fill="#f0f0f0"/><path fill="#e6e6e6" d="M422.39 334.94H268.11v-28.66h154.28z"/><path d="M295 315.19h97.5c4.38 0 8.56-3.54 11.57-9.78H283.43c3.01 6.24 7.19 9.78 11.57 9.78z" fill="#f0f0f0"/><path fill="#e6e6e6" d="M422.39 368.24H268.11v-28.66h154.28z"/><path d="M295 348.48h97.5c4.38 0 8.56-3.54 11.57-9.78H283.43c3.01 6.24 7.19 9.78 11.57 9.78z" fill="#f0f0f0"/><rect x="127.99" y="233.17" width="28.86" height="16.68" rx="4.54" fill="#f5f5f5"/><rect x="164.1" y="233.17" width="28.86" height="16.68" rx="4.54" fill="#f5f5f5"/><path d="M82.48 229.83s.69 20 27.07 20 27.06-20 27.06-20zm142.49 146.05h-29.04V256.15h29.04zm-5.57 6.52H76.2v-6.52h143.2z" fill="#f0f0f0"/><path fill="#f5f5f5" d="M70.62 256.14h125.31v119.73H70.62z"/><path fill="#f0f0f0" d="M82.04 302.21h102.48v27.6H82.04zm0 33.76h102.48v27.6H82.04z"/><path d="M121.25 305.91h24.05a2.32 2.32 0 002.31-2.31 2.32 2.32 0 00-2.31-2.32h-24.05a2.32 2.32 0 00-2.31 2.32 2.32 2.32 0 002.31 2.31z" fill="#f5f5f5"/><path fill="#f0f0f0" d="M82.04 268.46h102.48v27.6H82.04z"/><path d="M121.25 272.16h24.05a2.32 2.32 0 002.31-2.32 2.32 2.32 0 00-2.31-2.31h-24.05a2.32 2.32 0 00-2.31 2.31 2.32 2.32 0 002.31 2.32z" fill="#f5f5f5"/><rect x="118.94" y="335.04" width="28.67" height="4.63" rx="2.31" transform="rotate(180 133.275 337.35)" fill="#f5f5f5"/><path fill="#f0f0f0" d="M195.93 256.14H66.75v-6.3h129.18z"/><path fill="#e6e6e6" d="M195.93 249.85h33.1v6.3h-33.1z"/><path d="M389.76 183.19l-7.17-10.86c.25 62.86 1.31 66.48 1.28 77.3h5.75c.8-52.63 3.02-52.94.14-66.44z" fill="#e0e0e0"/><path d="M387 268.35c16.49 0 30.4-6.69 33.78-15.74a30.23 30.23 0 013.52-7l.26-.37h-75.14l.26.37a29.89 29.89 0 013.53 7c3.38 9.05 17.29 15.74 33.79 15.74z" fill="#fafafa"/><path d="M349.27 247.48h75.44a4.61 4.61 0 004.45-3.45 4.6 4.6 0 00-4.45-5.74h-75.44a4.59 4.59 0 00-4.45 5.74 4.59 4.59 0 004.45 3.45z" fill="#f0f0f0"/><path d="M387.59 174.44c-1.43-17-18.92-18.68-51.64-26.69C352 194 393 238.47 387.59 174.44z" fill="#e0e0e0"/><path d="M382.85 165.51c-2.42-13.5.11-27.81 38-26.41-9.49 37.17-26.74 89.09-38 26.41z" fill="#e0e0e0"/><path d="M384.57 198.47c1.15-15.55 13.13-34 52.35-20.73-17.44 30.18-55.13 58.26-52.35 20.73z" fill="#e0e0e0"/><ellipse cx="250" cy="416.24" rx="193.89" ry="11.32" fill="#f5f5f5"/><path fill="#407bff" d="M257.46 276.24H134.75v-6.62h122.71z"/><path fill="#fff" opacity=".5" d="M257.46 276.24H134.75v-6.62h122.71z"/><path fill="#407bff" d="M78.56 269.62h56.19v6.62H78.56z"/><path fill="#fff" opacity=".5" d="M78.56 269.62h56.19v6.62H78.56z"/><path opacity=".2" d="M78.56 269.62h56.19v6.62H78.56z"/><path fill="#407bff" d="M82.36 283.3h171.32l1.47-7.06H80.88l1.48 7.06z"/><path opacity=".6" d="M82.36 283.3h171.32l1.47-7.06H80.88l1.48 7.06z"/><path fill="#407bff" d="M235.89 283.3v129.23h-3.87l-4.88-129.23h8.75z"/><path fill="#fff" opacity=".5" d="M235.89 283.3v129.23h-3.87l-4.88-129.23h8.75z"/><path fill="#407bff" d="M190.15 283.3v129.23h-3.87L181.4 283.3h8.75z"/><path fill="#fff" opacity=".5" d="M190.15 283.3v129.23h-3.87L181.4 283.3h8.75z"/><path fill="#407bff" d="M90.99 283.3v129.23h3.87l4.88-129.23h-8.75z"/><path fill="#fff" opacity=".5" d="M90.99 283.3v129.23h3.87l4.88-129.23h-8.75z"/><path fill="#407bff" d="M136.73 283.3v129.23h3.87l4.88-129.23h-8.75z"/><path fill="#fff" opacity=".5" d="M136.73 283.3v129.23h3.87l4.88-129.23h-8.75z"/><path d="M397.31 186.54c2.19 4.27 4.2 8.53 6.13 12.89s3.72 8.77 5.37 13.31c.39 1.16.81 2.28 1.17 3.47l.28.88.15.44c0 .15.15.52.21.77a10.46 10.46 0 01.22 3 15.26 15.26 0 01-1.19 4.68 24.66 24.66 0 01-1.89 3.66 49.91 49.91 0 01-9.89 11.25l-3.69-3.38a81.57 81.57 0 006.51-11.51 23 23 0 001-2.77 6.53 6.53 0 00.27-2.18.94.94 0 00-.11-.45s0 .05-.05-.07l-.15-.39-.31-.78c-.4-1-.87-2.08-1.31-3.13-1.8-4.19-3.75-8.38-5.74-12.57l-6-12.55z" fill="#ff8b7b"/><path d="M395.28 236.3l-4.53 1.94 4.51 6.25s3.28-1.84 3.69-5.05z" fill="#ff8b7b"/><path fill="#ff8b7b" d="M384.62 241.36l4.99 4.68 5.65-1.55-4.51-6.25-6.13 3.12z"/><path d="M366.07 155.19c-.11.53-.47.9-.82.83s-.53-.56-.43-1.08.48-.9.82-.83.54.55.43 1.08z" fill="#263238"/><path d="M365.65 156.1a19.33 19.33 0 01-3.44 4 3.09 3.09 0 002.42 1z" fill="#ed847e"/><path d="M368.6 152.66a.34.34 0 01-.24-.11 2.53 2.53 0 00-2.11-.85.31.31 0 11-.11-.62 3.13 3.13 0 012.69 1 .32.32 0 01-.23.53z" fill="#263238"/><path d="M381.08 162.6c-1 4.88-1.91 13.81 1.5 17.07 0 0-1.33 4.94-10.39 4.94-10 0-4.76-4.94-4.76-4.94 5.43-1.3 5.29-5.34 4.35-9.13z" fill="#ff8b7b"/><path d="M384.92 181.22c.73-1.56 1.55-3.35-.28-3.83-2-.53-12.95-.76-16.67.52s-2.53 4.34-2.53 4.34zM364.85 409c-.85 0-1.68-.12-2-.51a.61.61 0 010-.69.81.81 0 01.5-.37c1.11-.3 3.44 1 3.53 1.09a.15.15 0 01.08.16.16.16 0 01-.12.13 12.22 12.22 0 01-1.99.19zm-1.05-1.3a1 1 0 00-.31 0 .46.46 0 00-.31.22c-.11.2-.07.29 0 .35.31.43 2 .44 3.23.26a7.23 7.23 0 00-2.61-.79z" fill="#407bff"/><path d="M366.87 408.85h-.07c-.8-.36-2.4-1.81-2.28-2.56 0-.18.16-.4.59-.44a1.18 1.18 0 01.88.27 4.43 4.43 0 011 2.57.15.15 0 01-.06.14zm-1.63-2.7h-.1c-.28 0-.3.14-.3.18-.08.45 1 1.59 1.83 2.08a3.82 3.82 0 00-.88-2.06.89.89 0 00-.55-.2z" fill="#407bff"/><path fill="#ff8b7b" d="M374.2 408.69h-6.67l-.66-15.43h6.66l.67 15.43zm48.04-7.35l-6.63.72-5-14.99 6.63-.72 5 14.99z"/><path d="M412.58 403.57c-.83.22-1.66.31-2 0a.59.59 0 01-.16-.67.78.78 0 01.4-.48c1-.57 3.58.14 3.69.17a.17.17 0 01.12.14.17.17 0 01-.09.16 11 11 0 01-1.96.68zm-1.34-1a1.6 1.6 0 00-.29.11.48.48 0 00-.24.29c-.06.22 0 .3.05.35.41.34 2.05-.07 3.2-.54a7.05 7.05 0 00-2.72-.2z" fill="#407bff"/><path d="M414.49 402.9h-.07c-.87-.15-2.77-1.15-2.83-1.91 0-.18.05-.43.46-.58a1.16 1.16 0 01.91 0c1 .47 1.61 2.16 1.64 2.23a.15.15 0 010 .16zm-2.24-2.22h-.1c-.26.1-.25.21-.25.25 0 .45 1.37 1.28 2.29 1.56a3.66 3.66 0 00-1.36-1.77.8.8 0 00-.58-.04z" fill="#407bff"/><path d="M415.23 401.44l7.19-2.09a.57.57 0 01.67.28L426 405a1 1 0 01-.61 1.41c-2.52.69-3.78.9-6.94 1.81-1.95.57-5.9 1.94-8.59 2.72s-3.81-1.78-2.78-2.34c4.62-2.51 6.05-4.54 7.21-6.41a1.63 1.63 0 01.94-.75zm-47.66 6.48h7.28a.58.58 0 01.57.46l1.32 5.92a1 1 0 01-1 1.19c-2.63-.05-6.42-.2-9.72-.2-3.86 0-6 .21-10.49.21-2.74 0-3.49-2.77-2.35-3 5.22-1.14 8.24-1.26 12.75-4a3.1 3.1 0 011.64-.58z" fill="#263238"/><path d="M362.77 191.75c-.88 2.34-1.83 4.39-2.85 6.53s-2.11 4.19-3.28 6.25a67.28 67.28 0 01-8.41 11.8c-.43.46-.87.92-1.33 1.37-.22.22-.45.45-.69.67l-.78.71a6.43 6.43 0 01-2.61 1.42 5.55 5.55 0 01-2.17.13 5.28 5.28 0 01-1.06-.25 6.35 6.35 0 01-.88-.39 6.11 6.11 0 01-1.95-1.7 8.05 8.05 0 01-.86-1.37 18.52 18.52 0 01-1.4-4.14c-.27-1.26-.45-2.46-.61-3.65a79.1 79.1 0 01-.4-14l5-.36c1 4.31 2 8.71 3.12 12.79.28 1 .61 2 .94 2.92a9.63 9.63 0 001 2.16c.06.08.12.12.08 0a1.84 1.84 0 00-.7-.59 3.15 3.15 0 00-.49-.22 3.25 3.25 0 00-.65-.16 3.6 3.6 0 00-1.33.07 3.12 3.12 0 00-1.18.57l.43-.48c.17-.17.33-.35.49-.54.32-.36.63-.75.94-1.13a71.07 71.07 0 006.69-10.56c1-1.88 2-3.82 2.91-5.76s1.83-4 2.63-5.82z" fill="#ff8b7b"/><path d="M394.52 181.17c6.25 1.44 12.56 19.7 12.56 19.7l-12.86 9.23s-3.59-8.51-7.13-15.95c-3.7-7.8 1.04-14.44 7.43-12.98z" fill="#263238"/><path d="M357.17 181.52s-7.09 8-.39 57.61h35.65c.25-5.47-3.19-32.17 2.09-58a93.5 93.5 0 00-11.94-1.5 129.69 129.69 0 00-15.15 0 66.85 66.85 0 00-10.26 1.89z" fill="#263238"/><path d="M366 188.27c2.24 6-8 21.88-8 21.88L342.78 201a72.88 72.88 0 009.91-14.5c4.93-10.26 11.51-3.06 13.31 1.77z" fill="#263238"/><path d="M335.2 198.09l-6.39-2.69 3.33-5.21s4.53.48 6.2 3.46a2 2 0 01-.62 2.61z" fill="#ff8b7b"/><path fill="#ff8b7b" d="M323.62 191.5l5.58-3.69 2.94 2.38-3.33 5.21-5.19-3.9z"/><path opacity=".2" d="M366.87 393.26l.34 7.96h6.67l-.34-7.96h-6.67zm50.37-6.9l-6.63.72 2.78 8.31 6.43-1.31-2.58-7.72z"/><path d="M383.87 157.64c-1.71 6.39-2.39 10.22-6.33 12.88-5.93 4-13.32-.59-13.55-7.36-.21-6.1 2.63-15.53 9.49-16.81a9 9 0 0110.39 11.29z" fill="#ff8b7b"/><path d="M388.05 153.88c.88.21 2.67.08 4.28-3.56 2.23-5-7.56-3.6-7.56-3.6s9-4.08 1.32-8c-5-2.55-6.88-.19-7.56 1.75.2-2-.29-4.66-4.88-3.25-7 2.14-1.95 7.68-1.95 7.68a3.87 3.87 0 00-4.94.37c-2.24 2-.48 4.83 1.68 7.35-1.29 1.82-1.85 4 1.61 4.81a2.72 2.72 0 012.23 2.63c0 3.41.13 6.19 2.5 8.37s10.63-.93 10.21-5.8a11 11 0 005.53-2.21c4.26-3.33-.74-5.83-2.47-6.54z" fill="#263238"/><path d="M374.76 157.75a7.49 7.49 0 01-3.29 3.5c-1.92 1-3-.46-2.56-2.38.39-1.73 1.86-4.33 3.83-4.54s2.81 1.61 2.02 3.42z" fill="#ff8b7b"/><path d="M369.43 239.13s7.56 50.95 11.71 70c4.55 20.9 28.47 84.89 28.47 84.89l12-2.21s-17.88-60.09-20.48-80.78c-2.81-22.46-8.71-71.93-8.71-71.93z" fill="#407bff"/><path d="M374.21 257.28C383 259 382 291.62 381 308.4c-2.53-11.86-6.22-34.68-8.74-50.88a3 3 0 011.95-.24z" opacity=".2"/><path d="M356.78 239.13s-.92 49.84-.19 70.17c.75 21.14 8.13 90.38 8.13 90.38H376s.41-68 .91-88.77c.55-22.63 3.29-71.78 3.29-71.78z" fill="#407bff"/><path d="M406.88 390c-.05 0 2.09 4.38 2.09 4.38l13.51-2.48-1-4.07zm-44.33 5.18c-.05 0 .64 4.69.64 4.69h13.74l.37-4.19z" fill="#263238"/><path fill="#7f3e3b" d="M249.4 408.4h7.16l-.05-16.56h-7.15l.04 16.56zm-38 0h7.15l2.37-16.56h-7.16l-2.36 16.56z"/><path d="M219 407.58h-8a.56.56 0 00-.57.49l-.94 6.35a1.15 1.15 0 001.14 1.28c2.81-.05 4.16-.22 7.69-.22 2.18 0 6.67.23 9.67.23s3.18-3 1.93-3.24c-5.6-1.2-7.8-2.87-9.69-4.45a1.81 1.81 0 00-1.23-.44zm37.47 0h-7.81a.59.59 0 00-.59.49l-1.07 6.35a1.1 1.1 0 001 1.28c2.81-.05 6.88-.22 10.42-.22 4.14 0 7.73.23 12.58.23 2.94 0 3.62-3 2.38-3.24-5.65-1.22-10.23-1.35-15.2-4.34a3.47 3.47 0 00-1.71-.55z" fill="#263238"/><path d="M251 182.14l9.77-3.13s9 24.68 11.6 27.29c3.52 3.55 8.56 13 11.34 18.24-.32 1.17-2 3.89-3 4.4-6.89-4.94-16.05-14.36-18-18.51C258.27 201 251 182.14 251 182.14z" fill="#7f3e3b"/><path d="M248.74 176.76c-3.28 6 8.28 26.14 8.28 26.14l14.59-6.76s-3.34-9.41-7.23-17.47c-3.7-7.67-12-8.55-15.64-1.91z" fill="#407bff"/><path d="M283.09 223.54l7.36 4.47-5.45 7.48a31.83 31.83 0 01-5.66-7.82zm12.75 10.77l-4.75 3.42-6.08-2.24 5.44-7.48 5.39 6.3z" fill="#7f3e3b"/><path opacity=".2" d="M256.51 391.84l.02 8.54h-7.15l-.03-8.54h7.16zm-42.75 0h7.16l-1.22 8.54h-7.16l1.22-8.54z"/><path d="M258.09 172.7s9 24.59 1.94 64.82h-38.26c-.41-5.88 2.58-37.51-3.77-65.18a98.46 98.46 0 0112.77-1.62 140.08 140.08 0 0116.27 0 73.5 73.5 0 0111.05 1.98z" fill="#407bff"/><path d="M237.93 172.84s6.46 8.42 5.1 64.68h7.1s2.69-48.16-5.24-65.17a41.49 41.49 0 00-6.96.49z" fill="#fff"/><path d="M226.48 179.17c.75 4.55-.42 15.45-4.45 28a183.32 183.32 0 00-3.43-32.12V175c2.51-.22 7.17-.1 7.88 4.17z" opacity=".2"/><path d="M232.52 155.51c1.16 5.23 1.83 11.72-1.75 15.21 0 0 2.23 5.31 12 5.31 8.89 0 4.31-5.31 4.31-5.31-5.87-1.39-5.75-8.61-4.83-12.68z" fill="#7f3e3b"/><path d="M230.77 170.27A24.64 24.64 0 00242 176c-1.71 1.16-3.91 5.32-3.91 5.32s-8.26-3.15-9.88-10.67c.79-.17 2.56-.38 2.56-.38z" fill="#407bff"/><path d="M230.77 170.27A24.64 24.64 0 00242 176c-1.71 1.16-3.91 5.32-3.91 5.32s-8.26-3.15-9.88-10.67c.79-.17 2.56-.38 2.56-.38z" opacity=".3"/><path d="M246.29 170.07s2.27 4.77-1.89 5.88a12.34 12.34 0 015 4.62s2.94-5.87-.59-10.1c-.76-.19-2.52-.4-2.52-.4z" fill="#407bff"/><path d="M246.29 170.07s2.27 4.77-1.89 5.88a12.34 12.34 0 015 4.62s2.94-5.87-.59-10.1c-.76-.19-2.52-.4-2.52-.4z" opacity=".3"/><path d="M242.22 158.05a15.59 15.59 0 00.25 8.59 4.64 4.64 0 01-2.67.4c-2.14-.43-3.43-1.41-5.21-5-.15-.92-1.87-5.61-2.06-6.49z" opacity=".2"/><path d="M250.05 150.15a6.53 6.53 0 01-1.48 4.88c-1.51 1.78-3.63.73-4.34-1.4-.65-1.91-.64-5.15 1.43-6.15a3.1 3.1 0 014.39 2.67z" fill="#7f3e3b"/><path d="M250.05 150.15a6.53 6.53 0 01-1.48 4.88c-1.51 1.78-3.63.73-4.34-1.4-.65-1.91-.64-5.15 1.43-6.15a3.1 3.1 0 014.39 2.67z" opacity=".2"/><path d="M227.71 149.89c2.92 6.54 3.35 10.21 7.66 13 6.49 4.23 14.22-.8 14.21-8.1 0-6.56-3.4-16.56-10.76-18-8.05-1.51-14.82 4.75-11.11 13.1z" fill="#7f3e3b"/><path d="M226.6 156a7.83 7.83 0 004.23 2.63c2 .42 2.35-1.53 1.19-3.45-1.05-1.73-2.9-5.09-5.13-3.57-1.48 1.05-1.72 2.75-.29 4.39z" fill="#7f3e3b"/><path d="M250.22 154.83c.22 4.42 4.64 10-3.29 11.27a16.9 16.9 0 01-11.88-2.55c-3.47-2.15-4.5-8.21-7.19-12.27-.12-.15-.06-.33.08-.51a1.52 1.52 0 012.48.28c.9 1.57 2.58 3.86 4.84 4 3.46.27 14.74-4.74 14.96-.22zm-15.34 82.69s1 9 2.17 21.19c1.4 13.81 3.13 31.75 4.23 45.42a1 1 0 000 .18c.21 2.6.39 5 .55 7.26 1.55 22.29 5.16 87.16 5.16 87.16h12.12s4.7-66.2 4.48-88.89c-.2-21.84-3.59-72.32-3.59-72.32z" fill="#263238"/><path d="M246 394.47c-.06 0 .18 4.51.18 4.51h14l.38-5.07z" fill="#407bff"/><path d="M237.05 258.71c1.4 13.81 3.13 31.75 4.23 45.42a1 1 0 000 .18c2.69-12.95 5.15-24.75 2.51-44z" opacity=".2"/><path d="M246.45 237.52s-4.17 51.69-7.1 72.17c-3.21 22.43-16.44 89-16.44 89H209.8s7.11-64.8 8.24-87c1.23-24.1 3.72-74.2 3.72-74.2z" fill="#263238"/><path d="M209.43 394.33c-.05 0-.26 4.65-.26 4.65h14.4l1-4.79z" fill="#407bff"/><path d="M239 148.81c.14.56.54 1 .91.88s.55-.61.42-1.17-.54-1-.91-.88-.55.6-.42 1.17zm6.32-1.38c.14.57.54 1 .91.88s.55-.6.42-1.17-.54-1-.91-.88-.55.6-.42 1.17z" fill="#263238"/><path d="M243.38 148.15a21.52 21.52 0 003.82 4.26 3.23 3.23 0 01-2.55 1.09z" fill="#630f0f"/><path d="M243.4 157.37a.17.17 0 00.12-.21.18.18 0 00-.21-.12 4.6 4.6 0 01-4.06-.85.16.16 0 00-.23 0 .16.16 0 000 .24 4.88 4.88 0 004.38.94z" fill="#7f3e3b"/><path d="M236.61 147.16a.34.34 0 00.23-.19 2.59 2.59 0 011.84-1.57.34.34 0 00.32-.4.35.35 0 00-.39-.29 3.19 3.19 0 00-2.35 2 .35.35 0 00.17.45.42.42 0 00.18 0zm11.02-2.61a.46.46 0 00.13-.08.34.34 0 000-.48 3.41 3.41 0 00-2.87-1.18.34.34 0 00-.28.39.36.36 0 00.39.29 2.7 2.7 0 012.27.95.36.36 0 00.36.11z" fill="#263238"/><path d="M213.86 181.7l9.49 4.39s-9.15 23.32-7.59 26.61c2.13 4.49 3.8 14.46 7.27 19.28-.18 1.17-1.58 4-2.51 4.59-7.59-4.09-15.08-19-15.49-23.48-.94-10.21 8.83-31.39 8.83-31.39z" fill="#7f3e3b"/><path d="M218 172.34c-6.74 1-13.92 24.43-13.92 24.43l16.41 7.23s4-10.35 6.88-18.64c3.02-8.67-2.13-14.08-9.37-13.02zm3.46 236.49a2.06 2.06 0 001.35-.37.93.93 0 00.28-.89.55.55 0 00-.32-.48c-.82-.41-3 1-3.27 1.17a.17.17 0 00-.07.17.2.2 0 00.14.14 8.62 8.62 0 001.89.26zm.95-1.48a.53.53 0 01.23 0 .24.24 0 01.12.2.66.66 0 01-.19.61 3.34 3.34 0 01-2.53.13 6.31 6.31 0 012.37-.94z" fill="#407bff"/><path d="M219.61 408.57a.12.12 0 00.08 0c.71-.4 2-2 1.81-2.76a.6.6 0 00-.57-.45.88.88 0 00-.71.22c-.78.68-.79 2.74-.79 2.83a.19.19 0 00.09.16zm1.23-2.9h.07c.23 0 .25.13.26.17.13.47-.69 1.66-1.39 2.21a3.84 3.84 0 01.68-2.24.55.55 0 01.38-.14zm38.66 3.16a2.63 2.63 0 001.72-.44.92.92 0 00.28-.83.57.57 0 00-.3-.45c-.89-.49-3.7 1-4 1.14a.18.18 0 00-.08.18.17.17 0 00.14.14 12.33 12.33 0 002.24.26zm1.23-1.48a.73.73 0 01.32.06.21.21 0 01.11.18.57.57 0 01-.18.54c-.42.4-1.59.46-3.18.2a8.89 8.89 0 012.93-.98z" fill="#407bff"/><path d="M257.28 408.57h.06c.85-.39 2.49-1.93 2.32-2.74 0-.19-.18-.43-.65-.48a1.23 1.23 0 00-.93.29c-.87.75-1 2.68-1 2.76a.18.18 0 00.08.15.17.17 0 00.12.02zm1.61-2.9h.1c.31 0 .33.15.34.19.1.49-1 1.7-1.86 2.23a3.75 3.75 0 01.84-2.2.85.85 0 01.58-.22z" fill="#407bff"/><path d="M222.18 231.85l6.75 1-5 6.59s-5.87-1.06-5.95-5.75z" fill="#7f3e3b"/><path fill="#7f3e3b" d="M233.65 237.43l-4.8 5.73-4.9-3.73 4.98-6.59 4.72 4.59z"/><path d="M158.18 177.78s-6.5-2.78-11.71.55-.93 3.92-6.65 6.53.67 6.17 0 9.53c-.8 4-7.51 5.72-3.72 10.39s32.33 7.06 35.44 1.25-4-5.77-2.27-10.71 2.62-8.12-2.17-11.21-3.5-8.61-8.92-6.33z" fill="#263238"/><path d="M178.17 220c.28 1.62.63 3.46 1 5.18s.8 3.5 1.29 5.22a84.14 84.14 0 003.49 10.1c.33.83.72 1.61 1.08 2.41l.1.22v.07h-.05a1 1 0 00-.62-.19c-.17 0-.12.08.05 0a3.46 3.46 0 00.71-.31 12.07 12.07 0 001.84-1.32 63.94 63.94 0 007.27-7.78l3 1.83a43.67 43.67 0 01-6.39 9.89 16.46 16.46 0 01-2.46 2.26 9.74 9.74 0 01-1.75 1 6 6 0 01-2.68.52 5.18 5.18 0 01-3.13-1.27 6.71 6.71 0 01-1-1.07c-.13-.18-.24-.35-.34-.52s-.17-.3-.23-.41c-.46-.87-1-1.73-1.37-2.61a70.61 70.61 0 01-4.26-10.89c-.57-1.85-1.09-3.72-1.51-5.61s-.81-3.74-1.08-5.8z" fill="#ffb573"/><path d="M175.44 212.2c2.89.54 5.61 12.1 5.61 12.1l-7.49 5.81s-8.24-11.31-6.25-14.57 3.92-4.13 8.13-3.34z" fill="#263238"/><path opacity=".2" d="M175.35 214.82l2.92 11.64-4.21 3.26 1.29-14.9z"/><path d="M197.17 231.89l5.63-.95-3.29 6.19s-4.43.07-5.82-2.44l.33-.59a4.51 4.51 0 013.15-2.21zm10.49.71l-1.95 5.56-6.2-1.03 3.29-6.19 4.86 1.66zm-18.45 176.29l6.66-1.83-3.78-15.53-6.66 1.83 3.78 15.53z" fill="#ffb573"/><path d="M195.87 405.89l-7.44 2.16a.55.55 0 00-.4.61l.86 6.13a1.11 1.11 0 001.41.87c2.58-.8 3.79-1.31 7.06-2.26 2-.59 7.86-2.06 10.64-2.87s2.13-3.6.9-3.51c-5.52.39-9.63-.08-11.8-1a1.8 1.8 0 00-1.23-.13z" fill="#263238"/><path d="M192.09 391.54l1.94 8-6.65 1.83-1.95-8.01 6.66-1.82z" opacity=".2"/><path d="M175.44 212.2s3.36 1-.67 41.77l-28 1.76c-.24-11.41-.67-18.43-7.58-41.45A82.78 82.78 0 01151 212a89.17 89.17 0 0112.7-.8c5.48.12 11.74 1 11.74 1z" fill="#407bff"/><path d="M175.44 212.2s3.36 1-.67 41.77l-28 1.76c-.24-11.41-.67-18.43-7.58-41.45A82.78 82.78 0 01151 212a89.17 89.17 0 0112.7-.8c5.48.12 11.74 1 11.74 1z" fill="#263238" opacity=".4"/><path d="M151.35 197.59c1.06 4 2.33 11.47-.36 14.38 0 0 1.38 4.07 9 3.6 8.35-.53 3.73-4.4 3.73-4.4-4.62-.8-4.72-4.19-4.13-7.41z" fill="#ffb573"/><path d="M151 212a89 89 0 0112.69-.8h.84c1.13 1.86 1.58 4.8-.58 9.28 0 0-11.42-3.78-14.62-8.29z" fill="#ffb573"/><path d="M154.7 200.11l4.86 3.64a13.94 13.94 0 00-.25 2.28c-1.75-.14-4.52-1.8-4.82-3.61a3.82 3.82 0 01.21-2.31z" opacity=".2"/><path d="M146.5 190.79c2 6.55 2.67 9.37 6.84 12 6.26 3.95 13.88.09 13.9-6.93 0-6.31-3.22-16-10.35-17.08a9.33 9.33 0 00-10.39 12.01z" fill="#ffb573"/><path d="M158.16 178.39c.83 3.17-6.73 14.33-10.95 17.39-4-4.39-3.78-10.06-2.05-12.95s5.84-6 13-4.44z" fill="#263238"/><path d="M158.7 178.49c3.35.95 6.86 4.92 5 4.76s-9.94-3.74-5-4.76z" fill="#263238"/><path d="M174.77 254s7.86 50.25 10.53 71.12c2.77 21.72 9.59 72.2 9.59 72.2l-9 2.6s-13.37-49.47-17.37-70.61c-4.35-23-14.27-74-14.27-74z" fill="#407bff"/><path d="M174.77 254s7.86 50.25 10.53 71.12c2.77 21.72 9.59 72.2 9.59 72.2l-9 2.6s-13.37-49.47-17.37-70.61c-4.35-23-14.27-74-14.27-74z" opacity=".2"/><path fill="#263238" d="M185.24 400.44l10.51-3.06-.2-3.57-11.89 3.01 1.58 3.62z"/><path fill="#ffb573" d="M168.85 405.92l6.64 1.85 1.78-14.5h-6.9l-1.52 12.65z"/><path opacity=".2" d="M169.5 400.48l6.71 1.46 1.06-8.67h-6.9l-.87 7.21z"/><path d="M175.79 407.1l-7.6-2.09a.62.62 0 00-.7.29l-2.34 5.55a1 1 0 00.68 1.44c2.67.68 3.42.79 6.77 1.71 2.05.56 6.94 2.94 12.24 2.94 2.83 0 2.53-3 1.34-3.25-5.33-1.16-8.12-4-9.4-5.89a1.77 1.77 0 00-.99-.7z" fill="#263238"/><path d="M168.41 254.35s26.92 57.5 24.55 75.53c-2.89 21.95-15.24 68.19-15.24 68.19l-9.41-1.86s5-46.42 6.94-67.92c2.14-23.43-26.86-41.61-28.69-72.54z" fill="#407bff"/><path fill="#263238" d="M167.41 398.38l10.99 2.42 1.05-3.75-11.86-2.64-.18 3.97z"/><path d="M178.05 408.91a2.81 2.81 0 001.78.06 1 1 0 00.6-.66.44.44 0 00-.1-.48c-.63-.66-3.83-.09-4.19 0a.21.21 0 00-.15.14.14.14 0 00.07.16 10.68 10.68 0 001.99.78zm1.75-1a.62.62 0 01.27.13.2.2 0 010 .2.67.67 0 01-.39.43c-.55.24-1.67 0-3.05-.65a9.74 9.74 0 013.17-.1z" fill="#407bff"/><path d="M176.09 408.11h.07c.94-.13 3.09-1.07 3.28-1.83 0-.18 0-.43-.41-.6a1.36 1.36 0 00-1 0 5.31 5.31 0 00-2 2.19.15.15 0 000 .16zm2.68-2.15h.1c.27.11.24.22.23.26-.11.46-1.63 1.25-2.64 1.49a4.38 4.38 0 011.69-1.74 1 1 0 01.62.03z" fill="#407bff"/><path d="M157.52 190.05c.13.55.52.92.87.83s.54-.59.41-1.13-.51-.91-.87-.83-.54.59-.41 1.13zm6.12-1.44c.13.54.52.91.88.83s.53-.59.41-1.13-.52-.92-.88-.83-.53.59-.41 1.13z" fill="#263238"/><path d="M163.91 187.55l1.21-.69s-.43 1.14-1.21.69z" fill="#263238"/><path d="M162 190a14.82 14.82 0 002.74 3 2.37 2.37 0 01-1.84.82z" fill="#ed893e"/><path d="M160.43 196.67a5.14 5.14 0 00.82-.13.17.17 0 00.12-.2.17.17 0 00-.2-.12 4.4 4.4 0 01-3.89-.85.17.17 0 00-.23 0 .17.17 0 000 .24 4.64 4.64 0 003.38 1.06z" fill="#263238"/><path d="M146.13 197.31a5 5 0 003.18 2.12c1.73.33 2.44-1.24 1.84-2.79-.54-1.4-2.09-3.25-3.76-2.88a2.25 2.25 0 00-1.26 3.55z" fill="#ffb573"/><path d="M154.77 189.39a.32.32 0 00.29-.25 3.89 3.89 0 012.18-2.21.33.33 0 00.18-.43.32.32 0 00-.42-.18 4.45 4.45 0 00-2.57 2.66.32.32 0 00.24.4zm10.05-4.04a.36.36 0 00.27-.18.34.34 0 00-.15-.44 3.23 3.23 0 00-3 0 .32.32 0 00-.11.44.33.33 0 00.45.12 2.6 2.6 0 012.36 0 .47.47 0 00.18.06z" fill="#263238"/><path d="M143.47 223.61c-.61 3.66-1.21 7.41-1.77 11.12s-1.06 7.43-1.35 11.11l-.1 1.32a4.56 4.56 0 000 .87 20.87 20.87 0 00.46 2.4c.44 1.69 1 3.45 1.61 5.2 1.19 3.52 2.6 7.05 4 10.57l-3.08 1.64a94.12 94.12 0 01-5.85-10.13 52.24 52.24 0 01-2.37-5.53 21.87 21.87 0 01-.89-3.16 10.33 10.33 0 01-.2-2v-1.53q.15-5.92.85-11.69c.44-3.86 1-7.66 1.75-11.51z" fill="#ffb573"/><path d="M139.22 214.28c-2.75 1-5.51 10.89-5.51 10.89l11.36 7.09s3.46-8.31 2.05-11.85c-1.46-3.7-4.77-7.3-7.9-6.13z" fill="#263238"/><path d="M198.7 406.32a2.61 2.61 0 001.48-.87.94.94 0 00.07-.85.55.55 0 00-.39-.34c-.94-.21-3.19 1.91-3.45 2.15a.17.17 0 000 .19.15.15 0 00.16.09 11 11 0 002.13-.37zm.78-1.71a.69.69 0 01.31 0 .21.21 0 01.15.14.61.61 0 010 .56c-.3.48-1.37.86-2.91 1a8.79 8.79 0 012.45-1.7z" fill="#407bff"/><path d="M196.57 406.69h.06c.69-.58 1.84-2.46 1.5-3.18-.08-.17-.27-.35-.72-.27a1.19 1.19 0 00-.79.52 4.58 4.58 0 00-.25 2.84.17.17 0 00.1.13zm.8-3.15h.1c.29 0 .34.06.36.09.21.43-.53 1.86-1.19 2.58a3.71 3.71 0 01.25-2.29.86.86 0 01.48-.38z" fill="#407bff"/><path d="M157.78 189l1.22-.68s-.43 1.16-1.22.68zm-11.5 65.11l-.55 2.55c-.09.2.15.39.48.37l28.79-1.82c.25 0 .45-.15.46-.31l.09-2.52c0-.17-.22-.31-.5-.29l-28.32 1.79a.53.53 0 00-.45.23z" fill="#263238"/><path d="M150.29 257h-.76c-.15 0-.27-.06-.27-.16l.15-3.27c0-.1.13-.18.28-.19l.76-.05c.15 0 .27.06.27.16l-.15 3.27c-.01.24-.13.24-.28.24zm22.58-1.38h-.75c-.16 0-.28-.07-.27-.16l.15-3.28c0-.09.13-.18.28-.19h.76c.15 0 .27.06.27.15l-.15 3.28c-.01.1-.16.19-.29.2zm-11.29.71l-.76.05c-.15 0-.27-.06-.27-.16l.16-3.27c0-.1.13-.19.28-.2h.76c.15 0 .27.06.26.15l-.15 3.28c0 .05-.13.14-.28.15z" fill="#407bff"/><path d="M146.14 265.53l5.67 4.84-6.93 1.14s-2.73-3.48-1.58-6.11zm6.82 10.53l-5.85.64-2.23-5.19 6.93-1.14 1.15 5.69z" fill="#ffb573"/><circle cx="304.39" cy="115.97" r="49.8" fill="#407bff"/><path d="M203.69 96.18l-.66-.75a22 22 0 0114.63-5.58v1a21 21 0 00-13.97 5.33zm-5.69 8.31l-.94-.35a21.85 21.85 0 012.29-4.46l.83.56a21.32 21.32 0 00-2.18 4.25z" fill="#407bff"/><circle cx="217.66" cy="111.87" r="18.52" transform="rotate(-45 217.656 111.864)" fill="#407bff"/><circle cx="180.42" cy="148.97" r="11.36" fill="#407bff"/><circle cx="380.64" cy="116.22" r="9.01" fill="#407bff"/><path d="M330.89 107.33a26.5 26.5 0 10-37.39 24.14v4.69h21.78v-4.69a26.48 26.48 0 0015.61-24.14z" fill="#fff"/><path opacity=".2" d="M313.4 148.97h-18.02l-1.88-12.81h21.78l-1.88 12.81z"/><path opacity=".4" d="M308.84 151.1h-8.9l-.92-2.13h10.74l-.92 2.13z"/><path d="M301.56 113.37a11.81 11.81 0 00-3-4.68c-3.13-3.12-7-4.17-8.75-2.39-.9.9-1.11 2.35-.58 4.07a11.77 11.77 0 003 4.67c2.09 2.1 4.51 3.26 6.42 3.26a3.7 3.7 0 001.3-.22l1.77 18.14a.66.66 0 00.66.6h.06a.66.66 0 00.6-.73l-1.85-18.91a4.09 4.09 0 00.37-3.81zm-8.39.73a10.58 10.58 0 01-2.65-4.12 2.77 2.77 0 01.26-2.75 1.94 1.94 0 011.41-.48c1.43 0 3.51.93 5.46 2.88a10.43 10.43 0 012.65 4.12 2.75 2.75 0 01-.26 2.75c-1.04 1.08-4.04.37-6.87-2.4zm25.77-7.8c-.91-.91-2.35-1.12-4.07-.59a12.82 12.82 0 00-7.65 7.66 4.11 4.11 0 00.36 3.81l-1.85 18.91a.67.67 0 00.6.73h.06a.66.66 0 00.66-.6l1.77-18.14a3.71 3.71 0 001.31.22c1.9 0 4.32-1.16 6.41-3.26a11.77 11.77 0 003-4.67c.51-1.72.3-3.17-.6-4.07zm-.68 3.68a10.47 10.47 0 01-2.65 4.12c-2.77 2.77-5.79 3.48-6.87 2.4a2.75 2.75 0 01-.26-2.75 10.54 10.54 0 012.65-4.12 10.46 10.46 0 014.13-2.65 4.66 4.66 0 011.35-.23 2 2 0 011.39.48 2.75 2.75 0 01.26 2.77z" fill="#407bff"/></svg>